<?xml version="1.0" encoding="UTF-8" standalone="no"?>
<!DOCTYPE svg PUBLIC "-//W3C//DTD SVG 1.1//EN"
 "http://www.w3.org/Graphics/SVG/1.1/DTD/svg11.dtd">
<!-- Generated by graphviz version 2.38.0 (20140413.2041)
 -->
<!-- Title: controllers_diagram Pages: 1 -->
<svg width="838pt" height="872pt"
 viewBox="0.00 0.00 837.50 872.00" xmlns="http://www.w3.org/2000/svg" xmlns:xlink="http://www.w3.org/1999/xlink">
<g id="graph0" class="graph" transform="scale(1 1) rotate(0) translate(344 443)">
<title>controllers_diagram</title>
<polygon fill="none" stroke="none" points="-344,429 -344,-443 493.5,-443 493.5,429 -344,429"/>
<!-- _diagram_info -->
<g id="node1" class="node"><title>_diagram_info</title>
<text text-anchor="start" x="8" y="157.4" font-family="Times,serif" font-size="13.00">Controllers diagram</text>
<text text-anchor="start" x="8" y="171.4" font-family="Times,serif" font-size="13.00">Date: Apr 29 2017 &#45; 10:25</text>
<text text-anchor="start" x="8" y="185.4" font-family="Times,serif" font-size="13.00">Migration version: 20170426125439</text>
<text text-anchor="start" x="8" y="199.4" font-family="Times,serif" font-size="13.00">Generated by RailRoady 1.5.2</text>
<text text-anchor="start" x="8" y="213.4" font-family="Times,serif" font-size="13.00">http://railroady.prestonlee.com</text>
</g>
<!-- V1::ProductsController -->
<g id="node2" class="node"><title>V1::ProductsController</title>
<path fill="none" stroke="black" d="M-242.5,-0C-242.5,-0 -123.5,-0 -123.5,-0 -117.5,-0 -111.5,-6 -111.5,-12 -111.5,-12 -111.5,-156 -111.5,-156 -111.5,-162 -117.5,-168 -123.5,-168 -123.5,-168 -242.5,-168 -242.5,-168 -248.5,-168 -254.5,-162 -254.5,-156 -254.5,-156 -254.5,-12 -254.5,-12 -254.5,-6 -248.5,-0 -242.5,-0"/>
<text text-anchor="middle" x="-183" y="-152.8" font-family="Times,serif" font-size="14.00">V1::ProductsController</text>
<polyline fill="none" stroke="black" points="-254.5,-145 -111.5,-145 "/>
<text text-anchor="start" x="-246.5" y="-129.8" font-family="Times,serif" font-size="14.00">create</text>
<text text-anchor="start" x="-246.5" y="-114.8" font-family="Times,serif" font-size="14.00">destroy</text>
<text text-anchor="start" x="-246.5" y="-99.8" font-family="Times,serif" font-size="14.00">index</text>
<text text-anchor="start" x="-246.5" y="-84.8" font-family="Times,serif" font-size="14.00">show</text>
<text text-anchor="start" x="-246.5" y="-69.8" font-family="Times,serif" font-size="14.00">update</text>
<polyline fill="none" stroke="black" points="-254.5,-62 -111.5,-62 "/>
<polyline fill="none" stroke="black" points="-254.5,-38 -111.5,-38 "/>
<text text-anchor="start" x="-246.5" y="-22.8" font-family="Times,serif" font-size="14.00">permitted_params</text>
<text text-anchor="start" x="-246.5" y="-7.8" font-family="Times,serif" font-size="14.00">set_product</text>
</g>
<!-- V1::ProvincesController -->
<g id="node3" class="node"><title>V1::ProvincesController</title>
<path fill="none" stroke="black" d="M-56.5,-341C-56.5,-341 68.5,-341 68.5,-341 74.5,-341 80.5,-347 80.5,-353 80.5,-353 80.5,-423 80.5,-423 80.5,-429 74.5,-435 68.5,-435 68.5,-435 -56.5,-435 -56.5,-435 -62.5,-435 -68.5,-429 -68.5,-423 -68.5,-423 -68.5,-353 -68.5,-353 -68.5,-347 -62.5,-341 -56.5,-341"/>
<text text-anchor="middle" x="6" y="-419.8" font-family="Times,serif" font-size="14.00">V1::ProvincesController</text>
<polyline fill="none" stroke="black" points="-68.5,-412 80.5,-412 "/>
<text text-anchor="start" x="-60.5" y="-396.8" font-family="Times,serif" font-size="14.00">index</text>
<polyline fill="none" stroke="black" points="-68.5,-389 80.5,-389 "/>
<polyline fill="none" stroke="black" points="-68.5,-365 80.5,-365 "/>
</g>
<!-- V1::ZonesController -->
<g id="node4" class="node"><title>V1::ZonesController</title>
<path fill="none" stroke="black" d="M301.5,85C301.5,85 406.5,85 406.5,85 412.5,85 418.5,79 418.5,73 418.5,73 418.5,-71 418.5,-71 418.5,-77 412.5,-83 406.5,-83 406.5,-83 301.5,-83 301.5,-83 295.5,-83 289.5,-77 289.5,-71 289.5,-71 289.5,73 289.5,73 289.5,79 295.5,85 301.5,85"/>
<text text-anchor="middle" x="354" y="-67.8" font-family="Times,serif" font-size="14.00">V1::ZonesController</text>
<polyline fill="none" stroke="black" points="289.5,-60 418.5,-60 "/>
<text text-anchor="start" x="297.5" y="-44.8" font-family="Times,serif" font-size="14.00">create</text>
<text text-anchor="start" x="297.5" y="-29.8" font-family="Times,serif" font-size="14.00">destroy</text>
<text text-anchor="start" x="297.5" y="-14.8" font-family="Times,serif" font-size="14.00">index</text>
<text text-anchor="start" x="297.5" y="0.2" font-family="Times,serif" font-size="14.00">show</text>
<text text-anchor="start" x="297.5" y="15.2" font-family="Times,serif" font-size="14.00">update</text>
<polyline fill="none" stroke="black" points="289.5,23 418.5,23 "/>
<polyline fill="none" stroke="black" points="289.5,47 418.5,47 "/>
<text text-anchor="start" x="297.5" y="62.2" font-family="Times,serif" font-size="14.00">permitted_params</text>
<text text-anchor="start" x="297.5" y="77.2" font-family="Times,serif" font-size="14.00">set_zone</text>
</g>
<!-- V1::CustomersController -->
<g id="node5" class="node"><title>V1::CustomersController</title>
<path fill="none" stroke="black" d="M114.5,102C114.5,102 245.5,102 245.5,102 251.5,102 257.5,96 257.5,90 257.5,90 257.5,-54 257.5,-54 257.5,-60 251.5,-66 245.5,-66 245.5,-66 114.5,-66 114.5,-66 108.5,-66 102.5,-60 102.5,-54 102.5,-54 102.5,90 102.5,90 102.5,96 108.5,102 114.5,102"/>
<text text-anchor="middle" x="180" y="-50.8" font-family="Times,serif" font-size="14.00">V1::CustomersController</text>
<polyline fill="none" stroke="black" points="102.5,-43 257.5,-43 "/>
<text text-anchor="start" x="110.5" y="-27.8" font-family="Times,serif" font-size="14.00">create</text>
<text text-anchor="start" x="110.5" y="-12.8" font-family="Times,serif" font-size="14.00">destroy</text>
<text text-anchor="start" x="110.5" y="2.2" font-family="Times,serif" font-size="14.00">index</text>
<text text-anchor="start" x="110.5" y="17.2" font-family="Times,serif" font-size="14.00">show</text>
<text text-anchor="start" x="110.5" y="32.2" font-family="Times,serif" font-size="14.00">update</text>
<polyline fill="none" stroke="black" points="102.5,40 257.5,40 "/>
<polyline fill="none" stroke="black" points="102.5,64 257.5,64 "/>
<text text-anchor="start" x="110.5" y="79.2" font-family="Times,serif" font-size="14.00">permitted_params</text>
<text text-anchor="start" x="110.5" y="94.2" font-family="Times,serif" font-size="14.00">set_customer</text>
</g>
<!-- V1::LineItemsController -->
<g id="node6" class="node"><title>V1::LineItemsController</title>
<path fill="none" stroke="black" d="M114,-102.5C114,-102.5 242,-102.5 242,-102.5 248,-102.5 254,-108.5 254,-114.5 254,-114.5 254,-273.5 254,-273.5 254,-279.5 248,-285.5 242,-285.5 242,-285.5 114,-285.5 114,-285.5 108,-285.5 102,-279.5 102,-273.5 102,-273.5 102,-114.5 102,-114.5 102,-108.5 108,-102.5 114,-102.5"/>
<text text-anchor="middle" x="178" y="-270.3" font-family="Times,serif" font-size="14.00">V1::LineItemsController</text>
<polyline fill="none" stroke="black" points="102,-262.5 254,-262.5 "/>
<text text-anchor="start" x="110" y="-247.3" font-family="Times,serif" font-size="14.00">create</text>
<text text-anchor="start" x="110" y="-232.3" font-family="Times,serif" font-size="14.00">destroy</text>
<text text-anchor="start" x="110" y="-217.3" font-family="Times,serif" font-size="14.00">index</text>
<text text-anchor="start" x="110" y="-202.3" font-family="Times,serif" font-size="14.00">show</text>
<text text-anchor="start" x="110" y="-187.3" font-family="Times,serif" font-size="14.00">update</text>
<polyline fill="none" stroke="black" points="102,-179.5 254,-179.5 "/>
<polyline fill="none" stroke="black" points="102,-155.5 254,-155.5 "/>
<text text-anchor="start" x="110" y="-140.3" font-family="Times,serif" font-size="14.00">current_order</text>
<text text-anchor="start" x="110" y="-125.3" font-family="Times,serif" font-size="14.00">permitted_params</text>
<text text-anchor="start" x="110" y="-110.3" font-family="Times,serif" font-size="14.00">set_line_item</text>
</g>
<!-- V1::ErrorsController -->
<g id="node7" class="node"><title>V1::ErrorsController</title>
<path fill="none" stroke="black" d="M-158,339C-158,339 -52,339 -52,339 -46,339 -40,333 -40,327 -40,327 -40,257 -40,257 -40,251 -46,245 -52,245 -52,245 -158,245 -158,245 -164,245 -170,251 -170,257 -170,257 -170,327 -170,327 -170,333 -164,339 -158,339"/>
<text text-anchor="middle" x="-105" y="260.2" font-family="Times,serif" font-size="14.00">V1::ErrorsController</text>
<polyline fill="none" stroke="black" points="-170,268 -40,268 "/>
<text text-anchor="start" x="-162" y="283.2" font-family="Times,serif" font-size="14.00">catch_404</text>
<polyline fill="none" stroke="black" points="-170,291 -40,291 "/>
<polyline fill="none" stroke="black" points="-170,315 -40,315 "/>
</g>
<!-- V1::VariantsController -->
<g id="node8" class="node"><title>V1::VariantsController</title>
<path fill="none" stroke="black" d="M-56,-119.5C-56,-119.5 62,-119.5 62,-119.5 68,-119.5 74,-125.5 74,-131.5 74,-131.5 74,-290.5 74,-290.5 74,-296.5 68,-302.5 62,-302.5 62,-302.5 -56,-302.5 -56,-302.5 -62,-302.5 -68,-296.5 -68,-290.5 -68,-290.5 -68,-131.5 -68,-131.5 -68,-125.5 -62,-119.5 -56,-119.5"/>
<text text-anchor="middle" x="3" y="-287.3" font-family="Times,serif" font-size="14.00">V1::VariantsController</text>
<polyline fill="none" stroke="black" points="-68,-279.5 74,-279.5 "/>
<text text-anchor="start" x="-60" y="-264.3" font-family="Times,serif" font-size="14.00">create</text>
<text text-anchor="start" x="-60" y="-249.3" font-family="Times,serif" font-size="14.00">destroy</text>
<text text-anchor="start" x="-60" y="-234.3" font-family="Times,serif" font-size="14.00">index</text>
<text text-anchor="start" x="-60" y="-219.3" font-family="Times,serif" font-size="14.00">show</text>
<text text-anchor="start" x="-60" y="-204.3" font-family="Times,serif" font-size="14.00">update</text>
<polyline fill="none" stroke="black" points="-68,-196.5 74,-196.5 "/>
<polyline fill="none" stroke="black" points="-68,-172.5 74,-172.5 "/>
<text text-anchor="start" x="-60" y="-157.3" font-family="Times,serif" font-size="14.00">current_product</text>
<text text-anchor="start" x="-60" y="-142.3" font-family="Times,serif" font-size="14.00">permitted_params</text>
<text text-anchor="start" x="-60" y="-127.3" font-family="Times,serif" font-size="14.00">set_variant</text>
</g>
<!-- V1::AddressesController -->
<g id="node9" class="node"><title>V1::AddressesController</title>
<path fill="none" stroke="black" d="M-243,-255.5C-243,-255.5 -115,-255.5 -115,-255.5 -109,-255.5 -103,-261.5 -103,-267.5 -103,-267.5 -103,-426.5 -103,-426.5 -103,-432.5 -109,-438.5 -115,-438.5 -115,-438.5 -243,-438.5 -243,-438.5 -249,-438.5 -255,-432.5 -255,-426.5 -255,-426.5 -255,-267.5 -255,-267.5 -255,-261.5 -249,-255.5 -243,-255.5"/>
<text text-anchor="middle" x="-179" y="-423.3" font-family="Times,serif" font-size="14.00">V1::AddressesController</text>
<polyline fill="none" stroke="black" points="-255,-415.5 -103,-415.5 "/>
<text text-anchor="start" x="-247" y="-400.3" font-family="Times,serif" font-size="14.00">create</text>
<text text-anchor="start" x="-247" y="-385.3" font-family="Times,serif" font-size="14.00">destroy</text>
<text text-anchor="start" x="-247" y="-370.3" font-family="Times,serif" font-size="14.00">index</text>
<text text-anchor="start" x="-247" y="-355.3" font-family="Times,serif" font-size="14.00">show</text>
<text text-anchor="start" x="-247" y="-340.3" font-family="Times,serif" font-size="14.00">update</text>
<polyline fill="none" stroke="black" points="-255,-332.5 -103,-332.5 "/>
<polyline fill="none" stroke="black" points="-255,-308.5 -103,-308.5 "/>
<text text-anchor="start" x="-247" y="-293.3" font-family="Times,serif" font-size="14.00">current_customer</text>
<text text-anchor="start" x="-247" y="-278.3" font-family="Times,serif" font-size="14.00">permitted_params</text>
<text text-anchor="start" x="-247" y="-263.3" font-family="Times,serif" font-size="14.00">set_address</text>
</g>
<!-- V1::TaxRatesController -->
<g id="node10" class="node"><title>V1::TaxRatesController</title>
<path fill="none" stroke="black" d="M-259.5,204C-259.5,204 -136.5,204 -136.5,204 -130.5,204 -124.5,198 -124.5,192 -124.5,192 -124.5,48 -124.5,48 -124.5,42 -130.5,36 -136.5,36 -136.5,36 -259.5,36 -259.5,36 -265.5,36 -271.5,42 -271.5,48 -271.5,48 -271.5,192 -271.5,192 -271.5,198 -265.5,204 -259.5,204"/>
<text text-anchor="middle" x="-198" y="51.2" font-family="Times,serif" font-size="14.00">V1::TaxRatesController</text>
<polyline fill="none" stroke="black" points="-271.5,59 -124.5,59 "/>
<text text-anchor="start" x="-263.5" y="74.2" font-family="Times,serif" font-size="14.00">create</text>
<text text-anchor="start" x="-263.5" y="89.2" font-family="Times,serif" font-size="14.00">destroy</text>
<text text-anchor="start" x="-263.5" y="104.2" font-family="Times,serif" font-size="14.00">index</text>
<text text-anchor="start" x="-263.5" y="119.2" font-family="Times,serif" font-size="14.00">show</text>
<text text-anchor="start" x="-263.5" y="134.2" font-family="Times,serif" font-size="14.00">update</text>
<polyline fill="none" stroke="black" points="-271.5,142 -124.5,142 "/>
<polyline fill="none" stroke="black" points="-271.5,166 -124.5,166 "/>
<text text-anchor="start" x="-263.5" y="181.2" font-family="Times,serif" font-size="14.00">permitted_params</text>
<text text-anchor="start" x="-263.5" y="196.2" font-family="Times,serif" font-size="14.00">set_tax_rate</text>
</g>
<!-- V1::RegistrationsController -->
<g id="node11" class="node"><title>V1::RegistrationsController</title>
<path fill="none" stroke="black" d="M334.5,-323.5C334.5,-323.5 477.5,-323.5 477.5,-323.5 483.5,-323.5 489.5,-329.5 489.5,-335.5 489.5,-335.5 489.5,-404.5 489.5,-404.5 489.5,-410.5 483.5,-416.5 477.5,-416.5 477.5,-416.5 334.5,-416.5 334.5,-416.5 328.5,-416.5 322.5,-410.5 322.5,-404.5 322.5,-404.5 322.5,-335.5 322.5,-335.5 322.5,-329.5 328.5,-323.5 334.5,-323.5"/>
<text text-anchor="middle" x="406" y="-401.3" font-family="Times,serif" font-size="14.00">V1::RegistrationsController</text>
<polyline fill="none" stroke="black" points="322.5,-393.5 489.5,-393.5 "/>
<text text-anchor="start" x="330.5" y="-378.3" font-family="Times,serif" font-size="14.00">create</text>
<polyline fill="none" stroke="black" points="322.5,-370.5 489.5,-370.5 "/>
<polyline fill="none" stroke="black" points="322.5,-346.5 489.5,-346.5 "/>
<text text-anchor="start" x="330.5" y="-331.3" font-family="Times,serif" font-size="14.00">permitted_params</text>
</g>
<!-- V1::WhoamiController -->
<g id="node12" class="node"><title>V1::WhoamiController</title>
<path fill="none" stroke="black" d="M-328,339C-328,339 -208,339 -208,339 -202,339 -196,333 -196,327 -196,327 -196,257 -196,257 -196,251 -202,245 -208,245 -208,245 -328,245 -328,245 -334,245 -340,251 -340,257 -340,257 -340,327 -340,327 -340,333 -334,339 -328,339"/>
<text text-anchor="middle" x="-268" y="260.2" font-family="Times,serif" font-size="14.00">V1::WhoamiController</text>
<polyline fill="none" stroke="black" points="-340,268 -196,268 "/>
<text text-anchor="start" x="-332" y="283.2" font-family="Times,serif" font-size="14.00">show</text>
<polyline fill="none" stroke="black" points="-340,291 -196,291 "/>
<polyline fill="none" stroke="black" points="-340,315 -196,315 "/>
</g>
<!-- V1::OrdersController -->
<g id="node13" class="node"><title>V1::OrdersController</title>
<path fill="none" stroke="black" d="M301.5,-119C301.5,-119 410.5,-119 410.5,-119 416.5,-119 422.5,-125 422.5,-131 422.5,-131 422.5,-275 422.5,-275 422.5,-281 416.5,-287 410.5,-287 410.5,-287 301.5,-287 301.5,-287 295.5,-287 289.5,-281 289.5,-275 289.5,-275 289.5,-131 289.5,-131 289.5,-125 295.5,-119 301.5,-119"/>
<text text-anchor="middle" x="356" y="-271.8" font-family="Times,serif" font-size="14.00">V1::OrdersController</text>
<polyline fill="none" stroke="black" points="289.5,-264 422.5,-264 "/>
<text text-anchor="start" x="297.5" y="-248.8" font-family="Times,serif" font-size="14.00">create</text>
<text text-anchor="start" x="297.5" y="-233.8" font-family="Times,serif" font-size="14.00">destroy</text>
<text text-anchor="start" x="297.5" y="-218.8" font-family="Times,serif" font-size="14.00">index</text>
<text text-anchor="start" x="297.5" y="-203.8" font-family="Times,serif" font-size="14.00">show</text>
<text text-anchor="start" x="297.5" y="-188.8" font-family="Times,serif" font-size="14.00">update</text>
<polyline fill="none" stroke="black" points="289.5,-181 422.5,-181 "/>
<polyline fill="none" stroke="black" points="289.5,-157 422.5,-157 "/>
<text text-anchor="start" x="297.5" y="-141.8" font-family="Times,serif" font-size="14.00">permitted_params</text>
<text text-anchor="start" x="297.5" y="-126.8" font-family="Times,serif" font-size="14.00">set_order</text>
</g>
<!-- V1::ApplicationController -->
<g id="node14" class="node"><title>V1::ApplicationController</title>
<path fill="none" stroke="black" d="M-73,102C-73,102 63,102 63,102 69,102 75,96 75,90 75,90 75,-70 75,-70 75,-76 69,-82 63,-82 63,-82 -73,-82 -73,-82 -79,-82 -85,-76 -85,-70 -85,-70 -85,90 -85,90 -85,96 -79,102 -73,102"/>
<text text-anchor="middle" x="-5" y="-66.8" font-family="Times,serif" font-size="14.00">V1::ApplicationController</text>
<polyline fill="none" stroke="black" points="-85,-59 75,-59 "/>
<polyline fill="none" stroke="black" points="-85,-35 75,-35 "/>
<polyline fill="none" stroke="black" points="-85,-11 75,-11 "/>
<text text-anchor="start" x="-77" y="4.2" font-family="Times,serif" font-size="14.00">authenticate_request</text>
<text text-anchor="start" x="-77" y="19.2" font-family="Times,serif" font-size="14.00">current_account</text>
<text text-anchor="start" x="-77" y="34.2" font-family="Times,serif" font-size="14.00">current_member</text>
<text text-anchor="start" x="-77" y="49.2" font-family="Times,serif" font-size="14.00">current_user</text>
<text text-anchor="start" x="-77" y="64.2" font-family="Times,serif" font-size="14.00">paging</text>
<text text-anchor="start" x="-77" y="79.2" font-family="Times,serif" font-size="14.00">pundit_user</text>
<text text-anchor="start" x="-77" y="94.2" font-family="Times,serif" font-size="14.00">scopes_with_paging</text>
</g>
<!-- V1::Auth::TokensController -->
<g id="node15" class="node"><title>V1::Auth::TokensController</title>
<path fill="none" stroke="black" d="M131,-323.5C131,-323.5 277,-323.5 277,-323.5 283,-323.5 289,-329.5 289,-335.5 289,-335.5 289,-404.5 289,-404.5 289,-410.5 283,-416.5 277,-416.5 277,-416.5 131,-416.5 131,-416.5 125,-416.5 119,-410.5 119,-404.5 119,-404.5 119,-335.5 119,-335.5 119,-329.5 125,-323.5 131,-323.5"/>
<text text-anchor="middle" x="204" y="-401.3" font-family="Times,serif" font-size="14.00">V1::Auth::TokensController</text>
<polyline fill="none" stroke="black" points="119,-393.5 289,-393.5 "/>
<text text-anchor="start" x="127" y="-378.3" font-family="Times,serif" font-size="14.00">create</text>
<polyline fill="none" stroke="black" points="119,-370.5 289,-370.5 "/>
<polyline fill="none" stroke="black" points="119,-346.5 289,-346.5 "/>
<text text-anchor="start" x="127" y="-331.3" font-family="Times,serif" font-size="14.00">permitted_params</text>
</g>
<!-- V1::CountriesController -->
<g id="node16" class="node"><title>V1::CountriesController</title>
<path fill="none" stroke="black" d="M11.5,356C11.5,356 136.5,356 136.5,356 142.5,356 148.5,350 148.5,344 148.5,344 148.5,274 148.5,274 148.5,268 142.5,262 136.5,262 136.5,262 11.5,262 11.5,262 5.5,262 -0.5,268 -0.5,274 -0.5,274 -0.5,344 -0.5,344 -0.5,350 5.5,356 11.5,356"/>
<text text-anchor="middle" x="74" y="277.2" font-family="Times,serif" font-size="14.00">V1::CountriesController</text>
<polyline fill="none" stroke="black" points="-0.5,285 148.5,285 "/>
<text text-anchor="start" x="7.5" y="300.2" font-family="Times,serif" font-size="14.00">index</text>
<polyline fill="none" stroke="black" points="-0.5,308 148.5,308 "/>
<polyline fill="none" stroke="black" points="-0.5,332 148.5,332 "/>
</g>
<!-- V1::MembersController -->
<g id="node17" class="node"><title>V1::MembersController</title>
<path fill="none" stroke="black" d="M300.5,289C300.5,289 425.5,289 425.5,289 431.5,289 437.5,283 437.5,277 437.5,277 437.5,133 437.5,133 437.5,127 431.5,121 425.5,121 425.5,121 300.5,121 300.5,121 294.5,121 288.5,127 288.5,133 288.5,133 288.5,277 288.5,277 288.5,283 294.5,289 300.5,289"/>
<text text-anchor="middle" x="363" y="136.2" font-family="Times,serif" font-size="14.00">V1::MembersController</text>
<polyline fill="none" stroke="black" points="288.5,144 437.5,144 "/>
<text text-anchor="start" x="296.5" y="159.2" font-family="Times,serif" font-size="14.00">create</text>
<text text-anchor="start" x="296.5" y="174.2" font-family="Times,serif" font-size="14.00">destroy</text>
<text text-anchor="start" x="296.5" y="189.2" font-family="Times,serif" font-size="14.00">index</text>
<text text-anchor="start" x="296.5" y="204.2" font-family="Times,serif" font-size="14.00">show</text>
<text text-anchor="start" x="296.5" y="219.2" font-family="Times,serif" font-size="14.00">update</text>
<polyline fill="none" stroke="black" points="288.5,227 437.5,227 "/>
<polyline fill="none" stroke="black" points="288.5,251 437.5,251 "/>
<text text-anchor="start" x="296.5" y="266.2" font-family="Times,serif" font-size="14.00">permitted_params</text>
<text text-anchor="start" x="296.5" y="281.2" font-family="Times,serif" font-size="14.00">set_member</text>
</g>
<!-- ApplicationController -->
<g id="node18" class="node"><title>ApplicationController</title>
<path fill="none" stroke="black" d="M199,424.5C199,424.5 311,424.5 311,424.5 317,424.5 323,418.5 323,412.5 323,412.5 323,341.5 323,341.5 323,335.5 317,329.5 311,329.5 311,329.5 199,329.5 199,329.5 193,329.5 187,335.5 187,341.5 187,341.5 187,412.5 187,412.5 187,418.5 193,424.5 199,424.5"/>
<text text-anchor="middle" x="255" y="344.7" font-family="Times,serif" font-size="14.00">ApplicationController</text>
<polyline fill="none" stroke="black" points="187,352.5 323,352.5 "/>
<polyline fill="none" stroke="black" points="187,376.5 323,376.5 "/>
<polyline fill="none" stroke="black" points="187,400.5 323,400.5 "/>
</g>
</g>
</svg>
