<?xml version="1.0" encoding="UTF-8" standalone="no"?>
<!DOCTYPE svg PUBLIC "-//W3C//DTD SVG 1.1//EN"
 "http://www.w3.org/Graphics/SVG/1.1/DTD/svg11.dtd">
<!-- Generated by graphviz version 2.38.0 (20140413.2041)
 -->
<!-- Title: models_diagram Pages: 1 -->
<svg width="1091pt" height="465pt"
 viewBox="0.00 0.00 1091.26 465.00" xmlns="http://www.w3.org/2000/svg" xmlns:xlink="http://www.w3.org/1999/xlink">
<g id="graph0" class="graph" transform="scale(1 1) rotate(0) translate(4 461)">
<title>models_diagram</title>
<polygon fill="none" stroke="none" points="-4,4 -4,-461 1087.26,-461 1087.26,4 -4,4"/>
<!-- _diagram_info -->
<g id="node1" class="node"><title>_diagram_info</title>
<text text-anchor="start" x="339.756" y="-442.6" font-family="Times,serif" font-size="13.00">Models diagram</text>
<text text-anchor="start" x="339.756" y="-428.6" font-family="Times,serif" font-size="13.00">Date: Apr 29 2017 &#45; 10:25</text>
<text text-anchor="start" x="339.756" y="-414.6" font-family="Times,serif" font-size="13.00">Migration version: 20170426125439</text>
<text text-anchor="start" x="339.756" y="-400.6" font-family="Times,serif" font-size="13.00">Generated by RailRoady 1.5.2</text>
<text text-anchor="start" x="339.756" y="-386.6" font-family="Times,serif" font-size="13.00">http://railroady.prestonlee.com</text>
</g>
<!-- Province -->
<g id="node2" class="node"><title>Province</title>
<ellipse fill="none" stroke="black" cx="140.756" cy="-164" rx="42.4939" ry="18"/>
<text text-anchor="middle" x="140.756" y="-160.3" font-family="Times,serif" font-size="14.00">Province</text>
</g>
<!-- Variant -->
<g id="node3" class="node"><title>Variant</title>
<ellipse fill="none" stroke="black" cx="729.756" cy="-18" rx="37.0935" ry="18"/>
<text text-anchor="middle" x="729.756" y="-14.3" font-family="Times,serif" font-size="14.00">Variant</text>
</g>
<!-- LineItem -->
<g id="node4" class="node"><title>LineItem</title>
<ellipse fill="none" stroke="black" cx="386.756" cy="-164" rx="43.5923" ry="18"/>
<text text-anchor="middle" x="386.756" y="-160.3" font-family="Times,serif" font-size="14.00">LineItem</text>
</g>
<!-- Product -->
<g id="node15" class="node"><title>Product</title>
<ellipse fill="none" stroke="black" cx="686.756" cy="-91" rx="38.1938" ry="18"/>
<text text-anchor="middle" x="686.756" y="-87.3" font-family="Times,serif" font-size="14.00">Product</text>
</g>
<!-- LineItem&#45;&gt;Product -->
<g id="edge1" class="edge"><title>LineItem&#45;&gt;Product</title>
<path fill="none" stroke="#afddf7" d="M431.424,-152.429C489.25,-138.743 589.243,-115.078 645.402,-101.787"/>
<ellipse fill="none" stroke="#afddf7" cx="427.434" cy="-153.373" rx="4.00001" ry="4.00001"/>
<ellipse fill="#afddf7" stroke="#afddf7" cx="649.467" cy="-100.825" rx="4.00001" ry="4.00001"/>
</g>
<!-- Account -->
<g id="node17" class="node"><title>Account</title>
<ellipse fill="none" stroke="black" cx="603.756" cy="-418" rx="40.0939" ry="18"/>
<text text-anchor="middle" x="603.756" y="-414.3" font-family="Times,serif" font-size="14.00">Account</text>
</g>
<!-- LineItem&#45;&gt;Account -->
<g id="edge2" class="edge"><title>LineItem&#45;&gt;Account</title>
<path fill="none" stroke="#9510c1" d="M403.082,-188.791C407.043,-197.405 411.456,-206.981 416.756,-215 466.163,-289.762 545.367,-361.073 583.013,-395.511"/>
<ellipse fill="none" stroke="#9510c1" cx="401.393" cy="-185.158" rx="4.00002" ry="4.00002"/>
<ellipse fill="#9510c1" stroke="#9510c1" cx="586.168" cy="-398.406" rx="4.00002" ry="4.00002"/>
</g>
<!-- Member -->
<g id="node5" class="node"><title>Member</title>
<ellipse fill="none" stroke="black" cx="842.756" cy="-251" rx="41.6928" ry="18"/>
<text text-anchor="middle" x="842.756" y="-247.3" font-family="Times,serif" font-size="14.00">Member</text>
</g>
<!-- TaxRate -->
<g id="node6" class="node"><title>TaxRate</title>
<ellipse fill="none" stroke="black" cx="194.756" cy="-251" rx="40.0939" ry="18"/>
<text text-anchor="middle" x="194.756" y="-247.3" font-family="Times,serif" font-size="14.00">TaxRate</text>
</g>
<!-- Order -->
<g id="node7" class="node"><title>Order</title>
<ellipse fill="none" stroke="black" cx="530.756" cy="-251" rx="31.3957" ry="18"/>
<text text-anchor="middle" x="530.756" y="-247.3" font-family="Times,serif" font-size="14.00">Order</text>
</g>
<!-- Order&#45;&gt;LineItem -->
<g id="edge3" class="edge"><title>Order&#45;&gt;LineItem</title>
<path fill="none" stroke="#7e2ea7" d="M493.726,-242.445C473.316,-237.066 448.244,-228.371 428.756,-215 419.121,-208.39 410.437,-198.998 403.499,-190.136"/>
<ellipse fill="none" stroke="#7e2ea7" cx="497.703" cy="-243.443" rx="4.00001" ry="4.00001"/>
<polygon fill="#7e2ea7" stroke="#7e2ea7" points="403.359,-189.947 401.026,-179.232 400.384,-185.928 397.409,-181.909 397.409,-181.909 397.409,-181.909 400.384,-185.928 393.792,-184.587 403.359,-189.947 403.359,-189.947"/>
</g>
<!-- Address -->
<g id="node10" class="node"><title>Address</title>
<ellipse fill="none" stroke="black" cx="599.756" cy="-164" rx="39.7935" ry="18"/>
<text text-anchor="middle" x="599.756" y="-160.3" font-family="Times,serif" font-size="14.00">Address</text>
</g>
<!-- Order&#45;&gt;Address -->
<g id="edge4" class="edge"><title>Order&#45;&gt;Address</title>
<path fill="none" stroke="#407195" d="M492.66,-243.614C459.538,-236.401 419.501,-222.62 437.756,-200 452.016,-182.33 510.268,-173.144 552.848,-168.698"/>
<ellipse fill="none" stroke="#407195" cx="496.974" cy="-244.502" rx="4.00001" ry="4.00001"/>
<ellipse fill="#407195" stroke="#407195" cx="556.889" cy="-168.294" rx="4" ry="4"/>
<text text-anchor="middle" x="484.756" y="-203.8" font-family="Times,serif" font-size="14.00">shipping_address</text>
</g>
<!-- Order&#45;&gt;Address -->
<g id="edge5" class="edge"><title>Order&#45;&gt;Address</title>
<path fill="none" stroke="#efcc0a" d="M539.775,-225.549C543.621,-216.961 548.647,-207.575 554.756,-200 559.31,-194.352 564.947,-189.068 570.672,-184.404"/>
<ellipse fill="none" stroke="#efcc0a" cx="538.131" cy="-229.449" rx="4.00002" ry="4.00002"/>
<ellipse fill="#efcc0a" stroke="#efcc0a" cx="574.208" cy="-181.672" rx="4.00002" ry="4.00002"/>
<text text-anchor="middle" x="596.256" y="-203.8" font-family="Times,serif" font-size="14.00">billing_address</text>
</g>
<!-- Validations::PostalCode -->
<g id="node8" class="node"><title>Validations::PostalCode</title>
<polygon fill="none" stroke="black" points="809.756,-436 661.756,-436 661.756,-400 809.756,-400 809.756,-436"/>
<text text-anchor="middle" x="735.756" y="-414.3" font-family="Times,serif" font-size="14.00">Validations::PostalCode</text>
</g>
<!-- ApplicationRecord -->
<g id="node9" class="node"><title>ApplicationRecord</title>
<ellipse fill="none" stroke="black" cx="904.756" cy="-418" rx="77.1866" ry="18"/>
<text text-anchor="middle" x="904.756" y="-414.3" font-family="Times,serif" font-size="14.00">ApplicationRecord</text>
</g>
<!-- Registration -->
<g id="node11" class="node"><title>Registration</title>
<polygon fill="none" stroke="black" points="1083.26,-436 1000.26,-436 1000.26,-400 1083.26,-400 1083.26,-436"/>
<text text-anchor="middle" x="1041.76" y="-414.3" font-family="Times,serif" font-size="14.00">Registration</text>
</g>
<!-- User -->
<g id="node12" class="node"><title>User</title>
<ellipse fill="none" stroke="black" cx="807.756" cy="-324" rx="27.0966" ry="18"/>
<text text-anchor="middle" x="807.756" y="-320.3" font-family="Times,serif" font-size="14.00">User</text>
</g>
<!-- User&#45;&gt;Member -->
<g id="edge6" class="edge"><title>User&#45;&gt;Member</title>
<path fill="none" stroke="#8ddfa3" d="M819.463,-299.251C822.837,-292.406 826.535,-284.904 829.971,-277.934"/>
<ellipse fill="none" stroke="#8ddfa3" cx="817.642" cy="-302.945" rx="4.00002" ry="4.00002"/>
<polygon fill="#8ddfa3" stroke="#8ddfa3" points="830.017,-277.84 838.475,-270.861 832.228,-273.356 834.439,-268.871 834.439,-268.871 834.439,-268.871 832.228,-273.356 830.403,-266.881 830.017,-277.84 830.017,-277.84"/>
</g>
<!-- Zone -->
<g id="node13" class="node"><title>Zone</title>
<ellipse fill="none" stroke="black" cx="194.756" cy="-324" rx="28.6953" ry="18"/>
<text text-anchor="middle" x="194.756" y="-320.3" font-family="Times,serif" font-size="14.00">Zone</text>
</g>
<!-- Zone&#45;&gt;Province -->
<g id="edge10" class="edge"><title>Zone&#45;&gt;Province</title>
<path fill="none" stroke="#92530f" d="M156.997,-317.5C107.731,-309.462 25.675,-292.826 7.75551,-269 -22.5533,-228.7 47.9329,-195.599 97.4331,-178.22"/>
<polygon fill="#92530f" stroke="#92530f" points="157.101,-317.516 166.272,-323.528 162.04,-318.3 166.978,-319.084 166.978,-319.084 166.978,-319.084 162.04,-318.3 167.683,-314.64 157.101,-317.516 157.101,-317.516"/>
<polygon fill="#92530f" stroke="#92530f" points="97.551,-178.18 108.468,-179.216 102.284,-176.568 107.017,-174.956 107.017,-174.956 107.017,-174.956 102.284,-176.568 105.567,-170.696 97.551,-178.18 97.551,-178.18"/>
</g>
<!-- Zone&#45;&gt;TaxRate -->
<g id="edge8" class="edge"><title>Zone&#45;&gt;TaxRate</title>
<path fill="none" stroke="#6e1f92" d="M194.756,-297.791C194.756,-291.832 194.756,-285.45 194.756,-279.399"/>
<ellipse fill="none" stroke="#6e1f92" cx="194.756" cy="-301.813" rx="4" ry="4"/>
<polygon fill="#6e1f92" stroke="#6e1f92" points="194.756,-279.029 199.256,-269.029 194.756,-274.029 194.756,-269.029 194.756,-269.029 194.756,-269.029 194.756,-274.029 190.256,-269.029 194.756,-279.029 194.756,-279.029"/>
</g>
<!-- ZoneMember -->
<g id="node14" class="node"><title>ZoneMember</title>
<ellipse fill="none" stroke="black" cx="76.7555" cy="-251" rx="59.5901" ry="18"/>
<text text-anchor="middle" x="76.7555" y="-247.3" font-family="Times,serif" font-size="14.00">ZoneMember</text>
</g>
<!-- Zone&#45;&gt;ZoneMember -->
<g id="edge7" class="edge"><title>Zone&#45;&gt;ZoneMember</title>
<path fill="none" stroke="#f97fad" d="M167.818,-306.792C151.045,-296.7 129.308,-283.62 111.277,-272.772"/>
<ellipse fill="none" stroke="#f97fad" cx="171.311" cy="-308.894" rx="4.00002" ry="4.00002"/>
<polygon fill="#f97fad" stroke="#f97fad" points="110.801,-272.485 104.553,-263.474 106.517,-269.907 102.233,-267.329 102.233,-267.329 102.233,-267.329 106.517,-269.907 99.9126,-271.185 110.801,-272.485 110.801,-272.485"/>
</g>
<!-- Country -->
<g id="node18" class="node"><title>Country</title>
<ellipse fill="none" stroke="black" cx="292.756" cy="-251" rx="39.7935" ry="18"/>
<text text-anchor="middle" x="292.756" y="-247.3" font-family="Times,serif" font-size="14.00">Country</text>
</g>
<!-- Zone&#45;&gt;Country -->
<g id="edge9" class="edge"><title>Zone&#45;&gt;Country</title>
<path fill="none" stroke="#aeaba5" d="M221.208,-303.835C234.451,-294.241 250.504,-282.61 264.046,-272.8"/>
<polygon fill="#aeaba5" stroke="#aeaba5" points="220.828,-304.11 210.09,-306.333 216.779,-307.044 212.73,-309.978 212.73,-309.978 212.73,-309.978 216.779,-307.044 215.37,-313.622 220.828,-304.11 220.828,-304.11"/>
<polygon fill="#aeaba5" stroke="#aeaba5" points="264.43,-272.522 275.168,-270.299 268.479,-269.588 272.528,-266.655 272.528,-266.655 272.528,-266.655 268.479,-269.588 269.888,-263.011 264.43,-272.522 264.43,-272.522"/>
</g>
<!-- Product&#45;&gt;Variant -->
<g id="edge11" class="edge"><title>Product&#45;&gt;Variant</title>
<path fill="none" stroke="#923a99" d="M701.026,-66.4374C705.361,-59.2787 710.141,-51.3869 714.536,-44.1292"/>
<ellipse fill="none" stroke="#923a99" cx="698.801" cy="-70.1113" rx="4.00002" ry="4.00002"/>
<polygon fill="#923a99" stroke="#923a99" points="714.656,-43.9316 723.686,-37.7092 717.246,-39.6548 719.836,-35.378 719.836,-35.378 719.836,-35.378 717.246,-39.6548 715.987,-33.0468 714.656,-43.9316 714.656,-43.9316"/>
</g>
<!-- Customer -->
<g id="node16" class="node"><title>Customer</title>
<ellipse fill="none" stroke="black" cx="603.756" cy="-324" rx="45.4919" ry="18"/>
<text text-anchor="middle" x="603.756" y="-320.3" font-family="Times,serif" font-size="14.00">Customer</text>
</g>
<!-- Customer&#45;&gt;Order -->
<g id="edge13" class="edge"><title>Customer&#45;&gt;Order</title>
<path fill="none" stroke="#5c009b" d="M581.149,-301.013C572.389,-292.493 562.375,-282.753 553.594,-274.212"/>
<ellipse fill="none" stroke="#5c009b" cx="584.323" cy="-304.1" rx="4.00002" ry="4.00002"/>
<polygon fill="#5c009b" stroke="#5c009b" points="553.425,-274.048 549.394,-263.85 549.841,-270.562 546.256,-267.076 546.256,-267.076 546.256,-267.076 549.841,-270.562 543.119,-270.302 553.425,-274.048 553.425,-274.048"/>
</g>
<!-- Customer&#45;&gt;Address -->
<g id="edge12" class="edge"><title>Customer&#45;&gt;Address</title>
<path fill="none" stroke="#cda08d" d="M619.473,-299.574C634.327,-274.31 652.331,-233.241 637.756,-200 635.605,-195.095 632.389,-190.573 628.723,-186.524"/>
<ellipse fill="none" stroke="#cda08d" cx="617.285" cy="-303.158" rx="4.00002" ry="4.00002"/>
<polygon fill="#cda08d" stroke="#cda08d" points="628.475,-186.284 624.404,-176.102 624.877,-182.812 621.279,-179.341 621.279,-179.341 621.279,-179.341 624.877,-182.812 618.155,-182.579 628.475,-186.284 628.475,-186.284"/>
</g>
<!-- Account&#45;&gt;Variant -->
<g id="edge15" class="edge"><title>Account&#45;&gt;Variant</title>
<path fill="none" stroke="#457528" d="M629.855,-395.331C637.079,-389.733 645.056,-383.906 652.756,-379 695.353,-351.857 752.756,-375.51 752.756,-325 752.756,-325 752.756,-325 752.756,-90 752.756,-74.6156 747.808,-58.2287 742.502,-45.0787"/>
<polygon fill="#457528" stroke="#457528" points="629.619,-395.518 618.987,-398.202 625.7,-398.623 621.782,-401.729 621.782,-401.729 621.782,-401.729 625.7,-398.623 624.576,-405.256 629.619,-395.518 629.619,-395.518"/>
<polygon fill="#457528" stroke="#457528" points="742.425,-44.9004 742.58,-33.9356 740.438,-40.3122 738.451,-35.7239 738.451,-35.7239 738.451,-35.7239 740.438,-40.3122 734.321,-37.5122 742.425,-44.9004 742.425,-44.9004"/>
</g>
<!-- Account&#45;&gt;LineItem -->
<g id="edge22" class="edge"><title>Account&#45;&gt;LineItem</title>
<path fill="none" stroke="#3dc142" d="M573.173,-396.707C529.229,-362.746 448.743,-290.639 398.756,-215 394.063,-207.9 390.067,-199.58 387.255,-191.787"/>
<polygon fill="#3dc142" stroke="#3dc142" points="573.227,-396.748 578.478,-406.375 577.212,-399.769 581.196,-402.789 581.196,-402.789 581.196,-402.789 577.212,-399.769 583.915,-399.203 573.227,-396.748 573.227,-396.748"/>
<polygon fill="#3dc142" stroke="#3dc142" points="387.187,-191.562 388.59,-180.687 385.735,-186.778 384.284,-181.993 384.284,-181.993 384.284,-181.993 385.735,-186.778 379.978,-183.3 387.187,-191.562 387.187,-191.562"/>
</g>
<!-- Account&#45;&gt;Member -->
<g id="edge16" class="edge"><title>Account&#45;&gt;Member</title>
<path fill="none" stroke="#3f8360" d="M625.88,-395.91C633.796,-389.486 643.149,-383.058 652.756,-379 732.408,-345.355 792.191,-411.409 843.756,-342 857.026,-324.137 855.223,-298.298 851.01,-278.884"/>
<ellipse fill="none" stroke="#3f8360" cx="622.643" cy="-398.662" rx="4.00002" ry="4.00002"/>
<polygon fill="#3f8360" stroke="#3f8360" points="850.995,-278.826 852.945,-268.035 849.787,-273.974 848.578,-269.123 848.578,-269.123 848.578,-269.123 849.787,-273.974 844.212,-270.21 850.995,-278.826 850.995,-278.826"/>
</g>
<!-- Account&#45;&gt;TaxRate -->
<g id="edge20" class="edge"><title>Account&#45;&gt;TaxRate</title>
<path fill="none" stroke="#3364c0" d="M581.752,-395.611C573.846,-389.166 564.467,-382.8 554.756,-379 468.345,-345.188 433.785,-393.185 346.756,-361 295.473,-342.035 245.894,-300.863 217.963,-274.901"/>
<ellipse fill="none" stroke="#3364c0" cx="584.986" cy="-398.385" rx="4.00002" ry="4.00002"/>
<polygon fill="#3364c0" stroke="#3364c0" points="217.608,-274.566 213.436,-264.425 213.976,-271.13 210.343,-267.694 210.343,-267.694 210.343,-267.694 213.976,-271.13 207.251,-270.963 217.608,-274.566 217.608,-274.566"/>
</g>
<!-- Account&#45;&gt;Order -->
<g id="edge21" class="edge"><title>Account&#45;&gt;Order</title>
<path fill="none" stroke="#2964d8" d="M583.996,-394.832C572.364,-380.652 558.303,-361.345 549.756,-342 540.908,-321.975 536.087,-297.587 533.518,-279.252"/>
<ellipse fill="none" stroke="#2964d8" cx="586.57" cy="-397.903" rx="4.00002" ry="4.00002"/>
<polygon fill="#2964d8" stroke="#2964d8" points="533.506,-279.156 536.717,-268.67 532.879,-274.195 532.252,-269.235 532.252,-269.235 532.252,-269.235 532.879,-274.195 527.788,-269.799 533.506,-279.156 533.506,-279.156"/>
</g>
<!-- Account&#45;&gt;Address -->
<g id="edge19" class="edge"><title>Account&#45;&gt;Address</title>
<path fill="none" stroke="#a4fa11" d="M626.289,-393.854C638.148,-380.021 651.497,-361.402 657.756,-342 667.076,-313.104 675.281,-237.883 653.756,-200 649.72,-192.897 643.583,-186.996 636.876,-182.19"/>
<polygon fill="#a4fa11" stroke="#a4fa11" points="626.201,-393.953 616.186,-398.42 622.873,-397.684 619.544,-401.415 619.544,-401.415 619.544,-401.415 622.873,-397.684 622.902,-404.411 626.201,-393.953 626.201,-393.953"/>
<polygon fill="#a4fa11" stroke="#a4fa11" points="636.634,-182.037 630.6,-172.88 632.412,-179.359 628.189,-176.68 628.189,-176.68 628.189,-176.68 632.412,-179.359 625.779,-180.48 636.634,-182.037 636.634,-182.037"/>
</g>
<!-- Account&#45;&gt;User -->
<g id="edge17" class="edge"><title>Account&#45;&gt;User</title>
<path fill="none" stroke="#6b325b" d="M627.361,-394.849C634.961,-388.822 643.757,-382.891 652.756,-379 699.837,-358.642 720.316,-382.782 766.756,-361 774.067,-357.571 781.055,-352.433 787.125,-347.106"/>
<polygon fill="#6b325b" stroke="#6b325b" points="627.291,-394.907 616.738,-397.888 623.461,-398.121 619.631,-401.335 619.631,-401.335 619.631,-401.335 623.461,-398.121 622.523,-404.783 627.291,-394.907 627.291,-394.907"/>
<polygon fill="#6b325b" stroke="#6b325b" points="787.513,-346.738 797.87,-343.134 791.145,-343.302 794.777,-339.865 794.777,-339.865 794.777,-339.865 791.145,-343.302 791.684,-336.596 787.513,-346.738 787.513,-346.738"/>
</g>
<!-- Account&#45;&gt;Zone -->
<g id="edge23" class="edge"><title>Account&#45;&gt;Zone</title>
<path fill="none" stroke="#4fbc1a" d="M582.183,-395.795C574.202,-389.233 564.667,-382.749 554.756,-379 436.873,-334.417 393.856,-392.233 271.756,-361 255.261,-356.781 237.994,-349.052 224.001,-341.835"/>
<ellipse fill="none" stroke="#4fbc1a" cx="585.474" cy="-398.647" rx="4.00002" ry="4.00002"/>
<polygon fill="#4fbc1a" stroke="#4fbc1a" points="223.709,-341.679 217.006,-333 219.298,-339.324 214.887,-336.969 214.887,-336.969 214.887,-336.969 219.298,-339.324 212.768,-340.939 223.709,-341.679 223.709,-341.679"/>
</g>
<!-- Account&#45;&gt;Product -->
<g id="edge14" class="edge"><title>Account&#45;&gt;Product</title>
<path fill="none" stroke="#dee24f" d="M628.839,-396.998C661.58,-370.78 714.756,-327.772 714.756,-325 714.756,-325 714.756,-325 714.756,-163 714.756,-147.113 708.614,-130.533 702.083,-117.395"/>
<ellipse fill="none" stroke="#dee24f" cx="625.709" cy="-399.502" rx="4.00002" ry="4.00002"/>
<polygon fill="#dee24f" stroke="#dee24f" points="702.043,-117.32 701.313,-106.379 699.692,-112.908 697.341,-108.495 697.341,-108.495 697.341,-108.495 699.692,-112.908 693.37,-110.611 702.043,-117.32 702.043,-117.32"/>
</g>
<!-- Account&#45;&gt;Customer -->
<g id="edge18" class="edge"><title>Account&#45;&gt;Customer</title>
<path fill="none" stroke="#631359" d="M603.756,-391.451C603.756,-379.315 603.756,-364.795 603.756,-352.427"/>
<ellipse fill="none" stroke="#631359" cx="603.756" cy="-395.696" rx="4" ry="4"/>
<polygon fill="#631359" stroke="#631359" points="603.756,-352.227 608.256,-342.227 603.756,-347.227 603.756,-342.227 603.756,-342.227 603.756,-342.227 603.756,-347.227 599.256,-342.227 603.756,-352.227 603.756,-352.227"/>
</g>
<!-- Country&#45;&gt;Province -->
<g id="edge24" class="edge"><title>Country&#45;&gt;Province</title>
<path fill="none" stroke="#f5d016" d="M261.357,-232.441C235.848,-218.177 199.964,-198.11 173.977,-183.578"/>
<ellipse fill="none" stroke="#f5d016" cx="265.179" cy="-234.579" rx="4.00002" ry="4.00002"/>
<polygon fill="#f5d016" stroke="#f5d016" points="173.959,-183.568 167.427,-174.759 169.595,-181.127 165.231,-178.687 165.231,-178.687 165.231,-178.687 169.595,-181.127 163.035,-182.615 173.959,-183.568 173.959,-183.568"/>
</g>
</g>
</svg>
