<?xml version="1.0" encoding="UTF-8" standalone="no"?>
<!DOCTYPE svg PUBLIC "-//W3C//DTD SVG 1.1//EN"
 "http://www.w3.org/Graphics/SVG/1.1/DTD/svg11.dtd">
<!-- Generated by graphviz version 2.38.0 (20140413.2041)
 -->
<!-- Title: models_diagram Pages: 1 -->
<svg width="1570pt" height="1749pt"
 viewBox="0.00 0.00 1570.21 1749.00" xmlns="http://www.w3.org/2000/svg" xmlns:xlink="http://www.w3.org/1999/xlink">
<g id="graph0" class="graph" transform="scale(1 1) rotate(0) translate(4 1745)">
<title>models_diagram</title>
<polygon fill="none" stroke="none" points="-4,4 -4,-1745 1566.21,-1745 1566.21,4 -4,4"/>
<!-- _diagram_info -->
<g id="node1" class="node"><title>_diagram_info</title>
<text text-anchor="start" x="643.206" y="-1697.1" font-family="Times,serif" font-size="13.00">Models diagram</text>
<text text-anchor="start" x="643.206" y="-1683.1" font-family="Times,serif" font-size="13.00">Date: Apr 29 2017 &#45; 10:25</text>
<text text-anchor="start" x="643.206" y="-1669.1" font-family="Times,serif" font-size="13.00">Migration version: 20170426125439</text>
<text text-anchor="start" x="643.206" y="-1655.1" font-family="Times,serif" font-size="13.00">Generated by RailRoady 1.5.2</text>
<text text-anchor="start" x="643.206" y="-1641.1" font-family="Times,serif" font-size="13.00">http://railroady.prestonlee.com</text>
</g>
<!-- Province -->
<g id="node2" class="node"><title>Province</title>
<path fill="none" stroke="black" d="M234.706,-678.5C234.706,-678.5 359.706,-678.5 359.706,-678.5 365.706,-678.5 371.706,-684.5 371.706,-690.5 371.706,-690.5 371.706,-757.5 371.706,-757.5 371.706,-763.5 365.706,-769.5 359.706,-769.5 359.706,-769.5 234.706,-769.5 234.706,-769.5 228.706,-769.5 222.706,-763.5 222.706,-757.5 222.706,-757.5 222.706,-690.5 222.706,-690.5 222.706,-684.5 228.706,-678.5 234.706,-678.5"/>
<text text-anchor="middle" x="297.206" y="-754.3" font-family="Times,serif" font-size="14.00">Province</text>
<polyline fill="none" stroke="black" points="222.706,-746.5 371.706,-746.5 "/>
<text text-anchor="start" x="230.706" y="-731.3" font-family="Times,serif" font-size="14.00">id :integer</text>
<text text-anchor="start" x="230.706" y="-716.3" font-family="Times,serif" font-size="14.00">name :character varying</text>
<text text-anchor="start" x="230.706" y="-701.3" font-family="Times,serif" font-size="14.00">abbr :character varying</text>
<text text-anchor="start" x="230.706" y="-686.3" font-family="Times,serif" font-size="14.00">country_id :integer</text>
</g>
<!-- Variant -->
<g id="node3" class="node"><title>Variant</title>
<path fill="none" stroke="black" d="M1060.21,-0.5C1060.21,-0.5 1280.21,-0.5 1280.21,-0.5 1286.21,-0.5 1292.21,-6.5 1292.21,-12.5 1292.21,-12.5 1292.21,-289.5 1292.21,-289.5 1292.21,-295.5 1286.21,-301.5 1280.21,-301.5 1280.21,-301.5 1060.21,-301.5 1060.21,-301.5 1054.21,-301.5 1048.21,-295.5 1048.21,-289.5 1048.21,-289.5 1048.21,-12.5 1048.21,-12.5 1048.21,-6.5 1054.21,-0.5 1060.21,-0.5"/>
<text text-anchor="middle" x="1170.21" y="-286.3" font-family="Times,serif" font-size="14.00">Variant</text>
<polyline fill="none" stroke="black" points="1048.21,-278.5 1292.21,-278.5 "/>
<text text-anchor="start" x="1056.21" y="-263.3" font-family="Times,serif" font-size="14.00">id :integer</text>
<text text-anchor="start" x="1056.21" y="-248.3" font-family="Times,serif" font-size="14.00">title :character varying</text>
<text text-anchor="start" x="1056.21" y="-233.3" font-family="Times,serif" font-size="14.00">price_cents :integer</text>
<text text-anchor="start" x="1056.21" y="-218.3" font-family="Times,serif" font-size="14.00">currency :character varying</text>
<text text-anchor="start" x="1056.21" y="-203.3" font-family="Times,serif" font-size="14.00">sku :character varying</text>
<text text-anchor="start" x="1056.21" y="-188.3" font-family="Times,serif" font-size="14.00">position :integer</text>
<text text-anchor="start" x="1056.21" y="-173.3" font-family="Times,serif" font-size="14.00">grams :integer</text>
<text text-anchor="start" x="1056.21" y="-158.3" font-family="Times,serif" font-size="14.00">option1 :character varying</text>
<text text-anchor="start" x="1056.21" y="-143.3" font-family="Times,serif" font-size="14.00">option2 :character varying</text>
<text text-anchor="start" x="1056.21" y="-128.3" font-family="Times,serif" font-size="14.00">option3 :character varying</text>
<text text-anchor="start" x="1056.21" y="-113.3" font-family="Times,serif" font-size="14.00">taxable :boolean</text>
<text text-anchor="start" x="1056.21" y="-98.3" font-family="Times,serif" font-size="14.00">inventory :integer</text>
<text text-anchor="start" x="1056.21" y="-83.3" font-family="Times,serif" font-size="14.00">old_inventory :integer</text>
<text text-anchor="start" x="1056.21" y="-68.3" font-family="Times,serif" font-size="14.00">weight :numeric</text>
<text text-anchor="start" x="1056.21" y="-53.3" font-family="Times,serif" font-size="14.00">weight_unit :character varying</text>
<text text-anchor="start" x="1056.21" y="-38.3" font-family="Times,serif" font-size="14.00">product_id :integer</text>
<text text-anchor="start" x="1056.21" y="-23.3" font-family="Times,serif" font-size="14.00">created_at :timestamp without time zone</text>
<text text-anchor="start" x="1056.21" y="-8.3" font-family="Times,serif" font-size="14.00">updated_at :timestamp without time zone</text>
</g>
<!-- LineItem -->
<g id="node4" class="node"><title>LineItem</title>
<path fill="none" stroke="black" d="M655.206,-588.5C655.206,-588.5 875.206,-588.5 875.206,-588.5 881.206,-588.5 887.206,-594.5 887.206,-600.5 887.206,-600.5 887.206,-847.5 887.206,-847.5 887.206,-853.5 881.206,-859.5 875.206,-859.5 875.206,-859.5 655.206,-859.5 655.206,-859.5 649.206,-859.5 643.206,-853.5 643.206,-847.5 643.206,-847.5 643.206,-600.5 643.206,-600.5 643.206,-594.5 649.206,-588.5 655.206,-588.5"/>
<text text-anchor="middle" x="765.206" y="-844.3" font-family="Times,serif" font-size="14.00">LineItem</text>
<polyline fill="none" stroke="black" points="643.206,-836.5 887.206,-836.5 "/>
<text text-anchor="start" x="651.206" y="-821.3" font-family="Times,serif" font-size="14.00">id :integer</text>
<text text-anchor="start" x="651.206" y="-806.3" font-family="Times,serif" font-size="14.00">title :character varying</text>
<text text-anchor="start" x="651.206" y="-791.3" font-family="Times,serif" font-size="14.00">variant_title :character varying</text>
<text text-anchor="start" x="651.206" y="-776.3" font-family="Times,serif" font-size="14.00">vendor :character varying</text>
<text text-anchor="start" x="651.206" y="-761.3" font-family="Times,serif" font-size="14.00">name :character varying</text>
<text text-anchor="start" x="651.206" y="-746.3" font-family="Times,serif" font-size="14.00">grams :integer</text>
<text text-anchor="start" x="651.206" y="-731.3" font-family="Times,serif" font-size="14.00">quantity :integer</text>
<text text-anchor="start" x="651.206" y="-716.3" font-family="Times,serif" font-size="14.00">price_cents :integer</text>
<text text-anchor="start" x="651.206" y="-701.3" font-family="Times,serif" font-size="14.00">total_discount_cents :integer</text>
<text text-anchor="start" x="651.206" y="-686.3" font-family="Times,serif" font-size="14.00">currency :character varying</text>
<text text-anchor="start" x="651.206" y="-671.3" font-family="Times,serif" font-size="14.00">taxable :boolean</text>
<text text-anchor="start" x="651.206" y="-656.3" font-family="Times,serif" font-size="14.00">requires_shipping :boolean</text>
<text text-anchor="start" x="651.206" y="-641.3" font-family="Times,serif" font-size="14.00">order_id :integer</text>
<text text-anchor="start" x="651.206" y="-626.3" font-family="Times,serif" font-size="14.00">variant_id :integer</text>
<text text-anchor="start" x="651.206" y="-611.3" font-family="Times,serif" font-size="14.00">created_at :timestamp without time zone</text>
<text text-anchor="start" x="651.206" y="-596.3" font-family="Times,serif" font-size="14.00">updated_at :timestamp without time zone</text>
</g>
<!-- Product -->
<g id="node15" class="node"><title>Product</title>
<path fill="none" stroke="black" d="M945.206,-339.5C945.206,-339.5 1175.21,-339.5 1175.21,-339.5 1181.21,-339.5 1187.21,-345.5 1187.21,-351.5 1187.21,-351.5 1187.21,-538.5 1187.21,-538.5 1187.21,-544.5 1181.21,-550.5 1175.21,-550.5 1175.21,-550.5 945.206,-550.5 945.206,-550.5 939.206,-550.5 933.206,-544.5 933.206,-538.5 933.206,-538.5 933.206,-351.5 933.206,-351.5 933.206,-345.5 939.206,-339.5 945.206,-339.5"/>
<text text-anchor="middle" x="1060.21" y="-535.3" font-family="Times,serif" font-size="14.00">Product</text>
<polyline fill="none" stroke="black" points="933.206,-527.5 1187.21,-527.5 "/>
<text text-anchor="start" x="941.206" y="-512.3" font-family="Times,serif" font-size="14.00">id :integer</text>
<text text-anchor="start" x="941.206" y="-497.3" font-family="Times,serif" font-size="14.00">title :character varying</text>
<text text-anchor="start" x="941.206" y="-482.3" font-family="Times,serif" font-size="14.00">body_html :text</text>
<text text-anchor="start" x="941.206" y="-467.3" font-family="Times,serif" font-size="14.00">product_type :character varying</text>
<text text-anchor="start" x="941.206" y="-452.3" font-family="Times,serif" font-size="14.00">slug :character varying</text>
<text text-anchor="start" x="941.206" y="-437.3" font-family="Times,serif" font-size="14.00">vendor :character varying</text>
<text text-anchor="start" x="941.206" y="-422.3" font-family="Times,serif" font-size="14.00">published :boolean</text>
<text text-anchor="start" x="941.206" y="-407.3" font-family="Times,serif" font-size="14.00">published_scope :integer</text>
<text text-anchor="start" x="941.206" y="-392.3" font-family="Times,serif" font-size="14.00">published_at :timestamp without time zone</text>
<text text-anchor="start" x="941.206" y="-377.3" font-family="Times,serif" font-size="14.00">account_id :integer</text>
<text text-anchor="start" x="941.206" y="-362.3" font-family="Times,serif" font-size="14.00">created_at :timestamp without time zone</text>
<text text-anchor="start" x="941.206" y="-347.3" font-family="Times,serif" font-size="14.00">updated_at :timestamp without time zone</text>
</g>
<!-- LineItem&#45;&gt;Product -->
<g id="edge1" class="edge"><title>LineItem&#45;&gt;Product</title>
<path fill="none" stroke="#6d173c" d="M893.138,-590.908C894.163,-589.933 895.186,-588.964 896.206,-588 907.279,-577.538 918.947,-566.837 930.746,-556.233"/>
<ellipse fill="none" stroke="#6d173c" cx="890.136" cy="-593.779" rx="4.00002" ry="4.00002"/>
<ellipse fill="#6d173c" stroke="#6d173c" cx="933.946" cy="-553.368" rx="4.00002" ry="4.00002"/>
</g>
<!-- Account -->
<g id="node17" class="node"><title>Account</title>
<path fill="none" stroke="black" d="M879.206,-1604.5C879.206,-1604.5 1099.21,-1604.5 1099.21,-1604.5 1105.21,-1604.5 1111.21,-1610.5 1111.21,-1616.5 1111.21,-1616.5 1111.21,-1728.5 1111.21,-1728.5 1111.21,-1734.5 1105.21,-1740.5 1099.21,-1740.5 1099.21,-1740.5 879.206,-1740.5 879.206,-1740.5 873.206,-1740.5 867.206,-1734.5 867.206,-1728.5 867.206,-1728.5 867.206,-1616.5 867.206,-1616.5 867.206,-1610.5 873.206,-1604.5 879.206,-1604.5"/>
<text text-anchor="middle" x="989.206" y="-1725.3" font-family="Times,serif" font-size="14.00">Account</text>
<polyline fill="none" stroke="black" points="867.206,-1717.5 1111.21,-1717.5 "/>
<text text-anchor="start" x="875.206" y="-1702.3" font-family="Times,serif" font-size="14.00">id :integer</text>
<text text-anchor="start" x="875.206" y="-1687.3" font-family="Times,serif" font-size="14.00">name :character varying</text>
<text text-anchor="start" x="875.206" y="-1672.3" font-family="Times,serif" font-size="14.00">owner_email :character varying</text>
<text text-anchor="start" x="875.206" y="-1657.3" font-family="Times,serif" font-size="14.00">owner_name :character varying</text>
<text text-anchor="start" x="875.206" y="-1642.3" font-family="Times,serif" font-size="14.00">website :character varying</text>
<text text-anchor="start" x="875.206" y="-1627.3" font-family="Times,serif" font-size="14.00">created_at :timestamp without time zone</text>
<text text-anchor="start" x="875.206" y="-1612.3" font-family="Times,serif" font-size="14.00">updated_at :timestamp without time zone</text>
</g>
<!-- LineItem&#45;&gt;Account -->
<g id="edge2" class="edge"><title>LineItem&#45;&gt;Account</title>
<path fill="none" stroke="#919915" d="M766.445,-868.105C765.52,-1076.88 768.28,-1452.57 836.206,-1567 843.132,-1578.67 851.928,-1589.26 861.791,-1598.83"/>
<ellipse fill="none" stroke="#919915" cx="766.465" cy="-863.828" rx="4" ry="4"/>
<ellipse fill="#919915" stroke="#919915" cx="864.788" cy="-1601.62" rx="4.00002" ry="4.00002"/>
</g>
<!-- Member -->
<g id="node5" class="node"><title>Member</title>
<path fill="none" stroke="black" d="M1330.21,-1016.5C1330.21,-1016.5 1550.21,-1016.5 1550.21,-1016.5 1556.21,-1016.5 1562.21,-1022.5 1562.21,-1028.5 1562.21,-1028.5 1562.21,-1170.5 1562.21,-1170.5 1562.21,-1176.5 1556.21,-1182.5 1550.21,-1182.5 1550.21,-1182.5 1330.21,-1182.5 1330.21,-1182.5 1324.21,-1182.5 1318.21,-1176.5 1318.21,-1170.5 1318.21,-1170.5 1318.21,-1028.5 1318.21,-1028.5 1318.21,-1022.5 1324.21,-1016.5 1330.21,-1016.5"/>
<text text-anchor="middle" x="1440.21" y="-1167.3" font-family="Times,serif" font-size="14.00">Member</text>
<polyline fill="none" stroke="black" points="1318.21,-1159.5 1562.21,-1159.5 "/>
<text text-anchor="start" x="1326.21" y="-1144.3" font-family="Times,serif" font-size="14.00">id :integer</text>
<text text-anchor="start" x="1326.21" y="-1129.3" font-family="Times,serif" font-size="14.00">user_id :integer</text>
<text text-anchor="start" x="1326.21" y="-1114.3" font-family="Times,serif" font-size="14.00">account_id :integer</text>
<text text-anchor="start" x="1326.21" y="-1099.3" font-family="Times,serif" font-size="14.00">confirmed :boolean</text>
<text text-anchor="start" x="1326.21" y="-1084.3" font-family="Times,serif" font-size="14.00">confirmation_email :character varying</text>
<text text-anchor="start" x="1326.21" y="-1069.3" font-family="Times,serif" font-size="14.00">role :integer</text>
<text text-anchor="start" x="1326.21" y="-1054.3" font-family="Times,serif" font-size="14.00">scopes :text</text>
<text text-anchor="start" x="1326.21" y="-1039.3" font-family="Times,serif" font-size="14.00">created_at :timestamp without time zone</text>
<text text-anchor="start" x="1326.21" y="-1024.3" font-family="Times,serif" font-size="14.00">updated_at :timestamp without time zone</text>
</g>
<!-- TaxRate -->
<g id="node6" class="node"><title>TaxRate</title>
<path fill="none" stroke="black" d="M346.206,-1031.5C346.206,-1031.5 566.206,-1031.5 566.206,-1031.5 572.206,-1031.5 578.206,-1037.5 578.206,-1043.5 578.206,-1043.5 578.206,-1155.5 578.206,-1155.5 578.206,-1161.5 572.206,-1167.5 566.206,-1167.5 566.206,-1167.5 346.206,-1167.5 346.206,-1167.5 340.206,-1167.5 334.206,-1161.5 334.206,-1155.5 334.206,-1155.5 334.206,-1043.5 334.206,-1043.5 334.206,-1037.5 340.206,-1031.5 346.206,-1031.5"/>
<text text-anchor="middle" x="456.206" y="-1152.3" font-family="Times,serif" font-size="14.00">TaxRate</text>
<polyline fill="none" stroke="black" points="334.206,-1144.5 578.206,-1144.5 "/>
<text text-anchor="start" x="342.206" y="-1129.3" font-family="Times,serif" font-size="14.00">id :integer</text>
<text text-anchor="start" x="342.206" y="-1114.3" font-family="Times,serif" font-size="14.00">name :character varying</text>
<text text-anchor="start" x="342.206" y="-1099.3" font-family="Times,serif" font-size="14.00">amount :numeric(8,5)</text>
<text text-anchor="start" x="342.206" y="-1084.3" font-family="Times,serif" font-size="14.00">zone_id :integer</text>
<text text-anchor="start" x="342.206" y="-1069.3" font-family="Times,serif" font-size="14.00">account_id :integer</text>
<text text-anchor="start" x="342.206" y="-1054.3" font-family="Times,serif" font-size="14.00">created_at :timestamp without time zone</text>
<text text-anchor="start" x="342.206" y="-1039.3" font-family="Times,serif" font-size="14.00">updated_at :timestamp without time zone</text>
</g>
<!-- Order -->
<g id="node7" class="node"><title>Order</title>
<path fill="none" stroke="black" d="M831.206,-911.5C831.206,-911.5 1061.21,-911.5 1061.21,-911.5 1067.21,-911.5 1073.21,-917.5 1073.21,-923.5 1073.21,-923.5 1073.21,-1275.5 1073.21,-1275.5 1073.21,-1281.5 1067.21,-1287.5 1061.21,-1287.5 1061.21,-1287.5 831.206,-1287.5 831.206,-1287.5 825.206,-1287.5 819.206,-1281.5 819.206,-1275.5 819.206,-1275.5 819.206,-923.5 819.206,-923.5 819.206,-917.5 825.206,-911.5 831.206,-911.5"/>
<text text-anchor="middle" x="946.206" y="-1272.3" font-family="Times,serif" font-size="14.00">Order</text>
<polyline fill="none" stroke="black" points="819.206,-1264.5 1073.21,-1264.5 "/>
<text text-anchor="start" x="827.206" y="-1249.3" font-family="Times,serif" font-size="14.00">id :integer</text>
<text text-anchor="start" x="827.206" y="-1234.3" font-family="Times,serif" font-size="14.00">email :character varying</text>
<text text-anchor="start" x="827.206" y="-1219.3" font-family="Times,serif" font-size="14.00">closed_at :timestamp without time zone</text>
<text text-anchor="start" x="827.206" y="-1204.3" font-family="Times,serif" font-size="14.00">number :integer</text>
<text text-anchor="start" x="827.206" y="-1189.3" font-family="Times,serif" font-size="14.00">note :text</text>
<text text-anchor="start" x="827.206" y="-1174.3" font-family="Times,serif" font-size="14.00">gateway :integer</text>
<text text-anchor="start" x="827.206" y="-1159.3" font-family="Times,serif" font-size="14.00">test :boolean</text>
<text text-anchor="start" x="827.206" y="-1144.3" font-family="Times,serif" font-size="14.00">total_price_cents :integer</text>
<text text-anchor="start" x="827.206" y="-1129.3" font-family="Times,serif" font-size="14.00">subtotal_price_cents :integer</text>
<text text-anchor="start" x="827.206" y="-1114.3" font-family="Times,serif" font-size="14.00">total_tax_cents :integer</text>
<text text-anchor="start" x="827.206" y="-1099.3" font-family="Times,serif" font-size="14.00">total_discounts_cents :integer</text>
<text text-anchor="start" x="827.206" y="-1084.3" font-family="Times,serif" font-size="14.00">total_line_items_price_cents :integer</text>
<text text-anchor="start" x="827.206" y="-1069.3" font-family="Times,serif" font-size="14.00">taxes_included :boolean</text>
<text text-anchor="start" x="827.206" y="-1054.3" font-family="Times,serif" font-size="14.00">financial_status :integer</text>
<text text-anchor="start" x="827.206" y="-1039.3" font-family="Times,serif" font-size="14.00">currency :character varying</text>
<text text-anchor="start" x="827.206" y="-1024.3" font-family="Times,serif" font-size="14.00">name :character varying</text>
<text text-anchor="start" x="827.206" y="-1009.3" font-family="Times,serif" font-size="14.00">cancelled_at :timestamp without time zone</text>
<text text-anchor="start" x="827.206" y="-994.3" font-family="Times,serif" font-size="14.00">processed_at :timestamp without time zone</text>
<text text-anchor="start" x="827.206" y="-979.3" font-family="Times,serif" font-size="14.00">cancel_reason :text</text>
<text text-anchor="start" x="827.206" y="-964.3" font-family="Times,serif" font-size="14.00">account_id :integer</text>
<text text-anchor="start" x="827.206" y="-949.3" font-family="Times,serif" font-size="14.00">customer_id :integer</text>
<text text-anchor="start" x="827.206" y="-934.3" font-family="Times,serif" font-size="14.00">created_at :timestamp without time zone</text>
<text text-anchor="start" x="827.206" y="-919.3" font-family="Times,serif" font-size="14.00">updated_at :timestamp without time zone</text>
</g>
<!-- Order&#45;&gt;LineItem -->
<g id="edge3" class="edge"><title>Order&#45;&gt;LineItem</title>
<path fill="none" stroke="#76e764" d="M851.998,-904.099C846.255,-892.248 840.532,-880.437 834.921,-868.859"/>
<ellipse fill="none" stroke="#76e764" cx="853.829" cy="-907.877" rx="4.00002" ry="4.00002"/>
<polygon fill="#76e764" stroke="#76e764" points="834.808,-868.627 834.497,-857.665 832.628,-864.127 830.447,-859.628 830.447,-859.628 830.447,-859.628 832.628,-864.127 826.398,-861.59 834.808,-868.627 834.808,-868.627"/>
</g>
<!-- Address -->
<g id="node10" class="node"><title>Address</title>
<path fill="none" stroke="black" d="M917.206,-588.5C917.206,-588.5 1137.21,-588.5 1137.21,-588.5 1143.21,-588.5 1149.21,-594.5 1149.21,-600.5 1149.21,-600.5 1149.21,-847.5 1149.21,-847.5 1149.21,-853.5 1143.21,-859.5 1137.21,-859.5 1137.21,-859.5 917.206,-859.5 917.206,-859.5 911.206,-859.5 905.206,-853.5 905.206,-847.5 905.206,-847.5 905.206,-600.5 905.206,-600.5 905.206,-594.5 911.206,-588.5 917.206,-588.5"/>
<text text-anchor="middle" x="1027.21" y="-844.3" font-family="Times,serif" font-size="14.00">Address</text>
<polyline fill="none" stroke="black" points="905.206,-836.5 1149.21,-836.5 "/>
<text text-anchor="start" x="913.206" y="-821.3" font-family="Times,serif" font-size="14.00">id :integer</text>
<text text-anchor="start" x="913.206" y="-806.3" font-family="Times,serif" font-size="14.00">address_1 :character varying</text>
<text text-anchor="start" x="913.206" y="-791.3" font-family="Times,serif" font-size="14.00">address_2 :character varying</text>
<text text-anchor="start" x="913.206" y="-776.3" font-family="Times,serif" font-size="14.00">city :character varying</text>
<text text-anchor="start" x="913.206" y="-761.3" font-family="Times,serif" font-size="14.00">company :character varying</text>
<text text-anchor="start" x="913.206" y="-746.3" font-family="Times,serif" font-size="14.00">first_name :character varying</text>
<text text-anchor="start" x="913.206" y="-731.3" font-family="Times,serif" font-size="14.00">last_name :character varying</text>
<text text-anchor="start" x="913.206" y="-716.3" font-family="Times,serif" font-size="14.00">phone :character varying</text>
<text text-anchor="start" x="913.206" y="-701.3" font-family="Times,serif" font-size="14.00">postal_code :character varying</text>
<text text-anchor="start" x="913.206" y="-686.3" font-family="Times,serif" font-size="14.00">category :integer</text>
<text text-anchor="start" x="913.206" y="-671.3" font-family="Times,serif" font-size="14.00">addressable_type :character varying</text>
<text text-anchor="start" x="913.206" y="-656.3" font-family="Times,serif" font-size="14.00">addressable_id :integer</text>
<text text-anchor="start" x="913.206" y="-641.3" font-family="Times,serif" font-size="14.00">province_id :integer</text>
<text text-anchor="start" x="913.206" y="-626.3" font-family="Times,serif" font-size="14.00">country_id :integer</text>
<text text-anchor="start" x="913.206" y="-611.3" font-family="Times,serif" font-size="14.00">created_at :timestamp without time zone</text>
<text text-anchor="start" x="913.206" y="-596.3" font-family="Times,serif" font-size="14.00">updated_at :timestamp without time zone</text>
</g>
<!-- Order&#45;&gt;Address -->
<g id="edge4" class="edge"><title>Order&#45;&gt;Address</title>
<path fill="none" stroke="#53eeb5" d="M880.454,-903.432C881.793,-894.785 883.992,-886.272 887.206,-878 889.595,-871.849 894.171,-864.322 900.258,-855.94"/>
<ellipse fill="none" stroke="#53eeb5" cx="879.955" cy="-907.438" rx="4.00001" ry="4.00001"/>
<ellipse fill="#53eeb5" stroke="#53eeb5" cx="902.792" cy="-852.57" rx="4.00002" ry="4.00002"/>
<text text-anchor="middle" x="934.206" y="-881.8" font-family="Times,serif" font-size="14.00">shipping_address</text>
</g>
<!-- Order&#45;&gt;Address -->
<g id="edge5" class="edge"><title>Order&#45;&gt;Address</title>
<path fill="none" stroke="#a34cad" d="M988.543,-903.28C991.141,-891.301 993.729,-879.367 996.264,-867.678"/>
<ellipse fill="none" stroke="#a34cad" cx="987.613" cy="-907.567" rx="4.00001" ry="4.00001"/>
<ellipse fill="#a34cad" stroke="#a34cad" cx="997.162" cy="-863.537" rx="4.00001" ry="4.00001"/>
<text text-anchor="middle" x="1034.71" y="-881.8" font-family="Times,serif" font-size="14.00">billing_address</text>
</g>
<!-- Validations::PostalCode -->
<g id="node8" class="node"><title>Validations::PostalCode</title>
<polygon fill="none" stroke="black" points="1129.21,-1649.5 1129.21,-1695.5 1277.21,-1695.5 1277.21,-1649.5 1129.21,-1649.5"/>
<text text-anchor="middle" x="1203.21" y="-1680.3" font-family="Times,serif" font-size="14.00">Validations::PostalCode</text>
<polyline fill="none" stroke="black" points="1129.21,-1672.5 1277.21,-1672.5 "/>
<text text-anchor="middle" x="1203.21" y="-1657.3" font-family="Times,serif" font-size="14.00"> </text>
</g>
<!-- ApplicationRecord -->
<g id="node9" class="node"><title>ApplicationRecord</title>
<ellipse fill="none" stroke="black" cx="1372.21" cy="-1672.5" rx="77.1866" ry="18"/>
<text text-anchor="middle" x="1372.21" y="-1668.8" font-family="Times,serif" font-size="14.00">ApplicationRecord</text>
</g>
<!-- Registration -->
<g id="node11" class="node"><title>Registration</title>
<polygon fill="none" stroke="black" points="1467.71,-1649.5 1467.71,-1695.5 1550.71,-1695.5 1550.71,-1649.5 1467.71,-1649.5"/>
<text text-anchor="middle" x="1509.21" y="-1680.3" font-family="Times,serif" font-size="14.00">Registration</text>
<polyline fill="none" stroke="black" points="1467.71,-1672.5 1550.71,-1672.5 "/>
<text text-anchor="middle" x="1509.21" y="-1657.3" font-family="Times,serif" font-size="14.00"> </text>
</g>
<!-- User -->
<g id="node12" class="node"><title>User</title>
<path fill="none" stroke="black" d="M1255.21,-1378C1255.21,-1378 1475.21,-1378 1475.21,-1378 1481.21,-1378 1487.21,-1384 1487.21,-1390 1487.21,-1390 1487.21,-1502 1487.21,-1502 1487.21,-1508 1481.21,-1514 1475.21,-1514 1475.21,-1514 1255.21,-1514 1255.21,-1514 1249.21,-1514 1243.21,-1508 1243.21,-1502 1243.21,-1502 1243.21,-1390 1243.21,-1390 1243.21,-1384 1249.21,-1378 1255.21,-1378"/>
<text text-anchor="middle" x="1365.21" y="-1498.8" font-family="Times,serif" font-size="14.00">User</text>
<polyline fill="none" stroke="black" points="1243.21,-1491 1487.21,-1491 "/>
<text text-anchor="start" x="1251.21" y="-1475.8" font-family="Times,serif" font-size="14.00">id :integer</text>
<text text-anchor="start" x="1251.21" y="-1460.8" font-family="Times,serif" font-size="14.00">email :character varying</text>
<text text-anchor="start" x="1251.21" y="-1445.8" font-family="Times,serif" font-size="14.00">password_digest :character varying</text>
<text text-anchor="start" x="1251.21" y="-1430.8" font-family="Times,serif" font-size="14.00">first_name :character varying</text>
<text text-anchor="start" x="1251.21" y="-1415.8" font-family="Times,serif" font-size="14.00">last_name :character varying</text>
<text text-anchor="start" x="1251.21" y="-1400.8" font-family="Times,serif" font-size="14.00">created_at :timestamp without time zone</text>
<text text-anchor="start" x="1251.21" y="-1385.8" font-family="Times,serif" font-size="14.00">updated_at :timestamp without time zone</text>
</g>
<!-- User&#45;&gt;Member -->
<g id="edge6" class="edge"><title>User&#45;&gt;Member</title>
<path fill="none" stroke="#907c20" d="M1381.59,-1369.76C1392.93,-1317.66 1408.09,-1248 1420.16,-1192.59"/>
<ellipse fill="none" stroke="#907c20" cx="1380.7" cy="-1373.85" rx="4.00001" ry="4.00001"/>
<polygon fill="#907c20" stroke="#907c20" points="1420.17,-1192.54 1426.69,-1183.72 1421.23,-1187.65 1422.3,-1182.76 1422.3,-1182.76 1422.3,-1182.76 1421.23,-1187.65 1417.9,-1181.81 1420.17,-1192.54 1420.17,-1192.54"/>
</g>
<!-- Zone -->
<g id="node13" class="node"><title>Zone</title>
<path fill="none" stroke="black" d="M346.206,-1385.5C346.206,-1385.5 566.206,-1385.5 566.206,-1385.5 572.206,-1385.5 578.206,-1391.5 578.206,-1397.5 578.206,-1397.5 578.206,-1494.5 578.206,-1494.5 578.206,-1500.5 572.206,-1506.5 566.206,-1506.5 566.206,-1506.5 346.206,-1506.5 346.206,-1506.5 340.206,-1506.5 334.206,-1500.5 334.206,-1494.5 334.206,-1494.5 334.206,-1397.5 334.206,-1397.5 334.206,-1391.5 340.206,-1385.5 346.206,-1385.5"/>
<text text-anchor="middle" x="456.206" y="-1491.3" font-family="Times,serif" font-size="14.00">Zone</text>
<polyline fill="none" stroke="black" points="334.206,-1483.5 578.206,-1483.5 "/>
<text text-anchor="start" x="342.206" y="-1468.3" font-family="Times,serif" font-size="14.00">id :integer</text>
<text text-anchor="start" x="342.206" y="-1453.3" font-family="Times,serif" font-size="14.00">name :character varying</text>
<text text-anchor="start" x="342.206" y="-1438.3" font-family="Times,serif" font-size="14.00">description :character varying</text>
<text text-anchor="start" x="342.206" y="-1423.3" font-family="Times,serif" font-size="14.00">account_id :integer</text>
<text text-anchor="start" x="342.206" y="-1408.3" font-family="Times,serif" font-size="14.00">created_at :timestamp without time zone</text>
<text text-anchor="start" x="342.206" y="-1393.3" font-family="Times,serif" font-size="14.00">updated_at :timestamp without time zone</text>
</g>
<!-- Zone&#45;&gt;Province -->
<g id="edge10" class="edge"><title>Zone&#45;&gt;Province</title>
<path fill="none" stroke="#ce75ab" d="M324.182,-1430.24C234.181,-1412.54 121.19,-1373.6 63.2059,-1288 -30.761,-1149.27 -9.61393,-1061.9 63.2059,-911 94.3446,-846.471 159.957,-797.445 213.802,-765.969"/>
<polygon fill="#ce75ab" stroke="#ce75ab" points="324.378,-1430.28 333.363,-1436.56 329.291,-1431.21 334.203,-1432.14 334.203,-1432.14 334.203,-1432.14 329.291,-1431.21 335.042,-1427.72 324.378,-1430.28 324.378,-1430.28"/>
<polygon fill="#ce75ab" stroke="#ce75ab" points="214.004,-765.853 224.917,-764.779 218.341,-763.364 222.677,-760.876 222.677,-760.876 222.677,-760.876 218.341,-763.364 220.438,-756.973 214.004,-765.853 214.004,-765.853"/>
</g>
<!-- Zone&#45;&gt;TaxRate -->
<g id="edge8" class="edge"><title>Zone&#45;&gt;TaxRate</title>
<path fill="none" stroke="#fa4187" d="M456.206,-1377.02C456.206,-1319.67 456.206,-1237.61 456.206,-1177.78"/>
<ellipse fill="none" stroke="#fa4187" cx="456.206" cy="-1381.39" rx="4" ry="4"/>
<polygon fill="#fa4187" stroke="#fa4187" points="456.206,-1177.63 460.706,-1167.63 456.206,-1172.63 456.206,-1167.63 456.206,-1167.63 456.206,-1167.63 456.206,-1172.63 451.706,-1167.63 456.206,-1177.63 456.206,-1177.63"/>
</g>
<!-- ZoneMember -->
<g id="node14" class="node"><title>ZoneMember</title>
<path fill="none" stroke="black" d="M84.2059,-1039C84.2059,-1039 304.206,-1039 304.206,-1039 310.206,-1039 316.206,-1045 316.206,-1051 316.206,-1051 316.206,-1148 316.206,-1148 316.206,-1154 310.206,-1160 304.206,-1160 304.206,-1160 84.2059,-1160 84.2059,-1160 78.2059,-1160 72.2059,-1154 72.2059,-1148 72.2059,-1148 72.2059,-1051 72.2059,-1051 72.2059,-1045 78.2059,-1039 84.2059,-1039"/>
<text text-anchor="middle" x="194.206" y="-1144.8" font-family="Times,serif" font-size="14.00">ZoneMember</text>
<polyline fill="none" stroke="black" points="72.2059,-1137 316.206,-1137 "/>
<text text-anchor="start" x="80.2059" y="-1121.8" font-family="Times,serif" font-size="14.00">id :integer</text>
<text text-anchor="start" x="80.2059" y="-1106.8" font-family="Times,serif" font-size="14.00">zoneable_type :character varying</text>
<text text-anchor="start" x="80.2059" y="-1091.8" font-family="Times,serif" font-size="14.00">zoneable_id :integer</text>
<text text-anchor="start" x="80.2059" y="-1076.8" font-family="Times,serif" font-size="14.00">zone_id :integer</text>
<text text-anchor="start" x="80.2059" y="-1061.8" font-family="Times,serif" font-size="14.00">created_at :timestamp without time zone</text>
<text text-anchor="start" x="80.2059" y="-1046.8" font-family="Times,serif" font-size="14.00">updated_at :timestamp without time zone</text>
</g>
<!-- Zone&#45;&gt;ZoneMember -->
<g id="edge7" class="edge"><title>Zone&#45;&gt;ZoneMember</title>
<path fill="none" stroke="#5ff28e" d="M399.024,-1379.03C375.594,-1351.35 348.554,-1318.55 325.206,-1288 295.626,-1249.3 264.316,-1204.64 239.726,-1168.61"/>
<ellipse fill="none" stroke="#5ff28e" cx="401.687" cy="-1382.17" rx="4.00002" ry="4.00002"/>
<polygon fill="#5ff28e" stroke="#5ff28e" points="239.573,-1168.39 237.665,-1157.59 236.759,-1164.25 233.945,-1160.12 233.945,-1160.12 233.945,-1160.12 236.759,-1164.25 230.225,-1162.65 239.573,-1168.39 239.573,-1168.39"/>
</g>
<!-- Country -->
<g id="node18" class="node"><title>Country</title>
<path fill="none" stroke="black" d="M608.706,-1061.5C608.706,-1061.5 733.706,-1061.5 733.706,-1061.5 739.706,-1061.5 745.706,-1067.5 745.706,-1073.5 745.706,-1073.5 745.706,-1125.5 745.706,-1125.5 745.706,-1131.5 739.706,-1137.5 733.706,-1137.5 733.706,-1137.5 608.706,-1137.5 608.706,-1137.5 602.706,-1137.5 596.706,-1131.5 596.706,-1125.5 596.706,-1125.5 596.706,-1073.5 596.706,-1073.5 596.706,-1067.5 602.706,-1061.5 608.706,-1061.5"/>
<text text-anchor="middle" x="671.206" y="-1122.3" font-family="Times,serif" font-size="14.00">Country</text>
<polyline fill="none" stroke="black" points="596.706,-1114.5 745.706,-1114.5 "/>
<text text-anchor="start" x="604.706" y="-1099.3" font-family="Times,serif" font-size="14.00">id :integer</text>
<text text-anchor="start" x="604.706" y="-1084.3" font-family="Times,serif" font-size="14.00">name :character varying</text>
<text text-anchor="start" x="604.706" y="-1069.3" font-family="Times,serif" font-size="14.00">abbr :character varying</text>
</g>
<!-- Zone&#45;&gt;Country -->
<g id="edge9" class="edge"><title>Zone&#45;&gt;Country</title>
<path fill="none" stroke="#908cca" d="M519.39,-1377.61C542.48,-1350.95 567.694,-1319.24 587.206,-1288 615.512,-1242.68 639.454,-1186.19 654.447,-1147.13"/>
<polygon fill="#908cca" stroke="#908cca" points="519.203,-1377.83 509.233,-1382.39 515.912,-1381.59 512.622,-1385.36 512.622,-1385.36 512.622,-1385.36 515.912,-1381.59 516.01,-1388.32 519.203,-1377.83 519.203,-1377.83"/>
<polygon fill="#908cca" stroke="#908cca" points="654.518,-1146.94 662.27,-1139.19 656.29,-1142.27 658.063,-1137.59 658.063,-1137.59 658.063,-1137.59 656.29,-1142.27 653.855,-1136 654.518,-1146.94 654.518,-1146.94"/>
</g>
<!-- Product&#45;&gt;Variant -->
<g id="edge11" class="edge"><title>Product&#45;&gt;Variant</title>
<path fill="none" stroke="#1fb38c" d="M1102.44,-331.878C1105.01,-325.068 1107.61,-318.154 1110.23,-311.199"/>
<ellipse fill="none" stroke="#1fb38c" cx="1101.02" cy="-335.663" rx="4.00001" ry="4.00001"/>
<polygon fill="#1fb38c" stroke="#1fb38c" points="1110.29,-311.055 1118.02,-303.284 1112.05,-306.376 1113.81,-301.697 1113.81,-301.697 1113.81,-301.697 1112.05,-306.376 1109.6,-300.111 1110.29,-311.055 1110.29,-311.055"/>
</g>
<!-- Customer -->
<g id="node16" class="node"><title>Customer</title>
<path fill="none" stroke="black" d="M879.206,-1325.5C879.206,-1325.5 1099.21,-1325.5 1099.21,-1325.5 1105.21,-1325.5 1111.21,-1331.5 1111.21,-1337.5 1111.21,-1337.5 1111.21,-1554.5 1111.21,-1554.5 1111.21,-1560.5 1105.21,-1566.5 1099.21,-1566.5 1099.21,-1566.5 879.206,-1566.5 879.206,-1566.5 873.206,-1566.5 867.206,-1560.5 867.206,-1554.5 867.206,-1554.5 867.206,-1337.5 867.206,-1337.5 867.206,-1331.5 873.206,-1325.5 879.206,-1325.5"/>
<text text-anchor="middle" x="989.206" y="-1551.3" font-family="Times,serif" font-size="14.00">Customer</text>
<polyline fill="none" stroke="black" points="867.206,-1543.5 1111.21,-1543.5 "/>
<text text-anchor="start" x="875.206" y="-1528.3" font-family="Times,serif" font-size="14.00">id :integer</text>
<text text-anchor="start" x="875.206" y="-1513.3" font-family="Times,serif" font-size="14.00">email :character varying</text>
<text text-anchor="start" x="875.206" y="-1498.3" font-family="Times,serif" font-size="14.00">first_name :character varying</text>
<text text-anchor="start" x="875.206" y="-1483.3" font-family="Times,serif" font-size="14.00">last_name :character varying</text>
<text text-anchor="start" x="875.206" y="-1468.3" font-family="Times,serif" font-size="14.00">company :character varying</text>
<text text-anchor="start" x="875.206" y="-1453.3" font-family="Times,serif" font-size="14.00">orders_count :integer</text>
<text text-anchor="start" x="875.206" y="-1438.3" font-family="Times,serif" font-size="14.00">total_spent_cents :integer</text>
<text text-anchor="start" x="875.206" y="-1423.3" font-family="Times,serif" font-size="14.00">total_spent_currency :character varying</text>
<text text-anchor="start" x="875.206" y="-1408.3" font-family="Times,serif" font-size="14.00">last_order_id :integer</text>
<text text-anchor="start" x="875.206" y="-1393.3" font-family="Times,serif" font-size="14.00">phone :character varying</text>
<text text-anchor="start" x="875.206" y="-1378.3" font-family="Times,serif" font-size="14.00">tax_exempt :boolean</text>
<text text-anchor="start" x="875.206" y="-1363.3" font-family="Times,serif" font-size="14.00">account_id :integer</text>
<text text-anchor="start" x="875.206" y="-1348.3" font-family="Times,serif" font-size="14.00">created_at :timestamp without time zone</text>
<text text-anchor="start" x="875.206" y="-1333.3" font-family="Times,serif" font-size="14.00">updated_at :timestamp without time zone</text>
</g>
<!-- Customer&#45;&gt;Order -->
<g id="edge13" class="edge"><title>Customer&#45;&gt;Order</title>
<path fill="none" stroke="#83456d" d="M973.27,-1317.32C972.47,-1310.92 971.659,-1304.42 970.841,-1297.87"/>
<ellipse fill="none" stroke="#83456d" cx="973.792" cy="-1321.51" rx="4.00001" ry="4.00001"/>
<polygon fill="#83456d" stroke="#83456d" points="970.791,-1297.47 974.018,-1286.99 970.172,-1292.51 969.553,-1287.55 969.553,-1287.55 969.553,-1287.55 970.172,-1292.51 965.087,-1288.1 970.791,-1297.47 970.791,-1297.47"/>
</g>
<!-- Customer&#45;&gt;Address -->
<g id="edge12" class="edge"><title>Customer&#45;&gt;Address</title>
<path fill="none" stroke="#dfee87" d="M1071.8,-1317.81C1075.92,-1307.97 1079.47,-1297.98 1082.21,-1288 1130.35,-1112.25 1115.87,-1056.7 1080.21,-878 1079.64,-875.157 1079.03,-872.295 1078.39,-869.42"/>
<ellipse fill="none" stroke="#dfee87" cx="1070.15" cy="-1321.63" rx="4.00002" ry="4.00002"/>
<polygon fill="#dfee87" stroke="#dfee87" points="1078.37,-869.334 1080.44,-858.567 1077.22,-864.468 1076.06,-859.603 1076.06,-859.603 1076.06,-859.603 1077.22,-864.468 1071.69,-860.639 1078.37,-869.334 1078.37,-869.334"/>
</g>
<!-- Account&#45;&gt;Variant -->
<g id="edge15" class="edge"><title>Account&#45;&gt;Variant</title>
<path fill="none" stroke="#ef9620" d="M1120.29,-1601.46C1146.93,-1586.29 1168.37,-1573 1173.21,-1567 1208.68,-1523.02 1215.21,-1503.51 1215.21,-1447 1215.21,-1447 1215.21,-1447 1215.21,-444 1215.21,-400.816 1210.34,-354.453 1203.81,-311.674"/>
<polygon fill="#ef9620" stroke="#ef9620" points="1120.18,-1601.52 1109.26,-1602.52 1115.83,-1603.98 1111.48,-1606.44 1111.48,-1606.44 1111.48,-1606.44 1115.83,-1603.98 1113.69,-1610.36 1120.18,-1601.52 1120.18,-1601.52"/>
<polygon fill="#ef9620" stroke="#ef9620" points="1203.8,-311.625 1206.7,-301.049 1203.02,-306.686 1202.25,-301.746 1202.25,-301.746 1202.25,-301.746 1203.02,-306.686 1197.8,-302.443 1203.8,-311.625 1203.8,-311.625"/>
</g>
<!-- Account&#45;&gt;LineItem -->
<g id="edge22" class="edge"><title>Account&#45;&gt;LineItem</title>
<path fill="none" stroke="#ecfb70" d="M858.998,-1612C842.875,-1599.26 828.483,-1584.31 818.206,-1567 750.482,-1452.91 747.537,-1079.11 754.802,-869.969"/>
<polygon fill="#ecfb70" stroke="#ecfb70" points="859.062,-1612.04 864.33,-1621.66 863.052,-1615.06 867.042,-1618.07 867.042,-1618.07 867.042,-1618.07 863.052,-1615.06 869.754,-1614.48 859.062,-1612.04 859.062,-1612.04"/>
<polygon fill="#ecfb70" stroke="#ecfb70" points="754.808,-869.822 759.664,-859.99 754.987,-864.825 755.167,-859.828 755.167,-859.828 755.167,-859.828 754.987,-864.825 750.67,-859.667 754.808,-869.822 754.808,-869.822"/>
</g>
<!-- Account&#45;&gt;Member -->
<g id="edge16" class="edge"><title>Account&#45;&gt;Member</title>
<path fill="none" stroke="#dedca6" d="M1119.1,-1604.33C1119.47,-1604.22 1119.84,-1604.11 1120.21,-1604 1200.73,-1580.24 1439.82,-1629.21 1496.21,-1567 1588.2,-1465.51 1535.41,-1296.43 1488.19,-1192.11"/>
<ellipse fill="none" stroke="#dedca6" cx="1115.16" cy="-1605.59" rx="4.00001" ry="4.00001"/>
<polygon fill="#dedca6" stroke="#dedca6" points="1488.11,-1191.93 1488.02,-1180.96 1486.02,-1187.39 1483.94,-1182.84 1483.94,-1182.84 1483.94,-1182.84 1486.02,-1187.39 1479.85,-1184.72 1488.11,-1191.93 1488.11,-1191.93"/>
</g>
<!-- Account&#45;&gt;TaxRate -->
<g id="edge20" class="edge"><title>Account&#45;&gt;TaxRate</title>
<path fill="none" stroke="#051851" d="M859.297,-1604.37C858.933,-1604.25 858.569,-1604.12 858.206,-1604 815.866,-1589.6 796.208,-1611.12 759.206,-1586 739.618,-1572.7 581.204,-1310.03 501.567,-1176.72"/>
<ellipse fill="none" stroke="#051851" cx="863.199" cy="-1605.77" rx="4.00001" ry="4.00001"/>
<polygon fill="#051851" stroke="#051851" points="501.332,-1176.33 500.069,-1165.44 498.769,-1172.04 496.205,-1167.74 496.205,-1167.74 496.205,-1167.74 498.769,-1172.04 492.342,-1170.05 501.332,-1176.33 501.332,-1176.33"/>
</g>
<!-- Account&#45;&gt;Order -->
<g id="edge21" class="edge"><title>Account&#45;&gt;Order</title>
<path fill="none" stroke="#6db59b" d="M879.603,-1598.58C871.095,-1588.94 863.693,-1578.4 858.206,-1567 818.014,-1483.53 830.087,-1383.41 856.274,-1297.37"/>
<ellipse fill="none" stroke="#6db59b" cx="882.323" cy="-1601.53" rx="4.00002" ry="4.00002"/>
<polygon fill="#6db59b" stroke="#6db59b" points="856.296,-1297.3 863.572,-1289.09 857.786,-1292.52 859.277,-1287.75 859.277,-1287.75 859.277,-1287.75 857.786,-1292.52 854.981,-1286.41 856.296,-1297.3 856.296,-1297.3"/>
</g>
<!-- Account&#45;&gt;Address -->
<g id="edge19" class="edge"><title>Account&#45;&gt;Address</title>
<path fill="none" stroke="#142648" d="M1100.24,-1596.93C1108.15,-1587.74 1115.03,-1577.75 1120.21,-1567 1144.6,-1516.34 1138.61,-1031.84 1111.21,-911 1108.07,-897.173 1103.86,-883.123 1099,-869.26"/>
<polygon fill="#142648" stroke="#142648" points="1100.11,-1597.08 1090.05,-1601.44 1096.74,-1600.77 1093.38,-1604.47 1093.38,-1604.47 1093.38,-1604.47 1096.74,-1600.77 1096.7,-1607.5 1100.11,-1597.08 1100.11,-1597.08"/>
<polygon fill="#142648" stroke="#142648" points="1098.94,-869.096 1099.76,-858.161 1097.23,-864.396 1095.52,-859.696 1095.52,-859.696 1095.52,-859.696 1097.23,-864.396 1091.29,-861.231 1098.94,-869.096 1098.94,-869.096"/>
</g>
<!-- Account&#45;&gt;User -->
<g id="edge17" class="edge"><title>Account&#45;&gt;User</title>
<path fill="none" stroke="#68abeb" d="M1121.1,-1604.11C1169.19,-1590.85 1188.29,-1607.3 1229.21,-1586 1259.06,-1570.46 1286.28,-1545.94 1308.4,-1521.8"/>
<polygon fill="#68abeb" stroke="#68abeb" points="1120.99,-1604.14 1110.11,-1602.76 1116.21,-1605.6 1111.43,-1607.06 1111.43,-1607.06 1111.43,-1607.06 1116.21,-1605.6 1112.74,-1611.36 1120.99,-1604.14 1120.99,-1604.14"/>
<polygon fill="#68abeb" stroke="#68abeb" points="1308.42,-1521.78 1318.45,-1517.33 1311.76,-1518.05 1315.1,-1514.33 1315.1,-1514.33 1315.1,-1514.33 1311.76,-1518.05 1311.75,-1511.33 1308.42,-1521.78 1308.42,-1521.78"/>
</g>
<!-- Account&#45;&gt;Zone -->
<g id="edge23" class="edge"><title>Account&#45;&gt;Zone</title>
<path fill="none" stroke="#98be02" d="M859.312,-1604.32C858.943,-1604.22 858.574,-1604.11 858.206,-1604 772.071,-1578.99 741.546,-1616.52 657.206,-1586 611.77,-1569.56 566.98,-1540.24 531.254,-1512.75"/>
<ellipse fill="none" stroke="#98be02" cx="863.262" cy="-1605.56" rx="4.00001" ry="4.00001"/>
<polygon fill="#98be02" stroke="#98be02" points="531.192,-1512.7 526.075,-1503 527.25,-1509.63 523.307,-1506.55 523.307,-1506.55 523.307,-1506.55 527.25,-1509.63 520.539,-1510.1 531.192,-1512.7 531.192,-1512.7"/>
</g>
<!-- Account&#45;&gt;Product -->
<g id="edge14" class="edge"><title>Account&#45;&gt;Product</title>
<path fill="none" stroke="#215fef" d="M1115.67,-1598.87C1125.49,-1589.23 1134.27,-1578.61 1141.21,-1567 1169.76,-1519.2 1177.21,-1502.68 1177.21,-1447 1177.21,-1447 1177.21,-1447 1177.21,-723 1177.21,-662.409 1180.23,-644.448 1158.21,-588 1154.49,-578.484 1150.03,-568.983 1145.08,-559.663"/>
<ellipse fill="none" stroke="#215fef" cx="1112.67" cy="-1601.69" rx="4.00002" ry="4.00002"/>
<polygon fill="#215fef" stroke="#215fef" points="1145.02,-559.549 1144.15,-548.618 1142.61,-555.168 1140.2,-550.787 1140.2,-550.787 1140.2,-550.787 1142.61,-555.168 1136.26,-552.956 1145.02,-559.549 1145.02,-559.549"/>
</g>
<!-- Account&#45;&gt;Customer -->
<g id="edge18" class="edge"><title>Account&#45;&gt;Customer</title>
<path fill="none" stroke="#3d8069" d="M989.206,-1596.16C989.206,-1589.89 989.206,-1583.44 989.206,-1576.92"/>
<ellipse fill="none" stroke="#3d8069" cx="989.206" cy="-1600.45" rx="4" ry="4"/>
<polygon fill="#3d8069" stroke="#3d8069" points="989.206,-1576.61 993.706,-1566.61 989.206,-1571.61 989.206,-1566.61 989.206,-1566.61 989.206,-1566.61 989.206,-1571.61 984.706,-1566.61 989.206,-1576.61 989.206,-1576.61"/>
</g>
<!-- Country&#45;&gt;Province -->
<g id="edge24" class="edge"><title>Country&#45;&gt;Province</title>
<path fill="none" stroke="#05cfd2" d="M659.066,-1053.29C646.371,-1012.55 623.207,-952.813 587.206,-911 530.48,-845.117 444.681,-794.086 381.111,-762.281"/>
<ellipse fill="none" stroke="#05cfd2" cx="660.301" cy="-1057.35" rx="4.00001" ry="4.00001"/>
<polygon fill="#05cfd2" stroke="#05cfd2" points="380.864,-762.16 373.893,-753.695 376.381,-759.944 371.899,-757.729 371.899,-757.729 371.899,-757.729 376.381,-759.944 369.905,-761.763 380.864,-762.16 380.864,-762.16"/>
</g>
</g>
</svg>
